<svg id="svg" version="1.1" xmlns="http://www.w3.org/2000/svg" xmlns:xlink="http://www.w3.org/1999/xlink" width="400" height="134.01534526854218" viewBox="0, 0, 400,134.01534526854218"><g id="svgg"><path id="path0" d="M100.583 30.518 C 98.017 30.597,88.604 30.690,79.667 30.725 C 68.572 30.769,62.941 30.851,61.917 30.984 C 58.772 31.393,58.034 31.520,55.833 32.031 C 54.906 32.246,53.303 32.778,52.417 33.166 C 52.050 33.326,51.075 33.741,50.250 34.088 C 49.425 34.435,48.551 34.858,48.308 35.026 C 48.064 35.195,47.813 35.333,47.749 35.333 C 47.616 35.333,45.625 36.528,45.500 36.684 C 45.454 36.740,45.180 36.908,44.891 37.056 C 44.602 37.204,44.264 37.424,44.141 37.544 C 44.018 37.664,43.618 37.984,43.252 38.256 C 39.179 41.285,35.582 45.872,33.586 50.583 C 33.431 50.950,33.207 51.438,33.089 51.667 C 32.669 52.481,31.817 55.813,31.169 59.167 C 30.724 61.470,30.242 67.882,30.401 69.372 C 30.463 69.947,30.589 70.867,30.681 71.417 C 30.774 71.967,30.921 72.848,31.008 73.375 C 31.510 76.410,31.536 76.540,31.998 78.292 C 33.221 82.934,36.140 88.630,38.688 91.346 C 38.814 91.480,39.252 91.963,39.661 92.420 C 40.427 93.274,41.962 94.701,43.066 95.583 C 43.410 95.858,43.884 96.246,44.121 96.444 C 44.357 96.642,44.745 96.902,44.984 97.022 C 45.222 97.142,45.717 97.437,46.083 97.679 C 46.722 98.099,49.588 99.646,49.753 99.660 C 50.028 99.683,50.780 99.951,51.206 100.179 C 51.365 100.264,51.584 100.333,51.693 100.333 C 51.802 100.333,52.009 100.433,52.154 100.556 C 52.419 100.781,55.082 101.647,56.542 101.984 C 58.364 102.404,58.829 102.485,60.417 102.653 C 74.535 104.149,93.935 104.357,125.250 103.347 C 139.007 102.903,144.142 100.253,147.881 91.667 C 148.687 89.815,149.409 85.671,149.580 81.917 C 149.642 80.542,149.715 79.154,149.741 78.833 C 149.857 77.439,149.022 74.013,148.147 72.294 C 148.066 72.135,148.000 71.933,148.000 71.847 C 148.000 70.937,144.387 66.429,142.575 65.077 C 142.213 64.806,141.879 64.544,141.833 64.493 C 141.681 64.324,140.758 63.710,140.083 63.329 C 138.030 62.169,137.406 61.921,134.083 60.946 C 133.583 60.799,125.117 60.750,100.083 60.750 L 66.750 60.750 65.508 61.159 C 61.271 62.554,60.103 65.477,61.778 70.500 C 62.986 74.124,63.683 74.213,87.333 73.761 C 97.119 73.574,122.796 73.308,124.500 73.376 C 126.165 73.442,128.050 73.748,130.172 74.296 C 132.148 74.807,134.536 76.589,135.133 78.000 C 136.140 80.378,136.124 84.816,135.101 86.667 C 134.924 86.987,134.674 87.455,134.546 87.705 C 134.221 88.338,133.276 89.085,132.004 89.715 C 130.723 90.350,133.726 90.299,108.083 90.123 C 75.566 89.900,72.098 89.837,69.250 89.419 C 68.883 89.365,68.021 89.243,67.333 89.148 C 66.646 89.053,65.708 88.904,65.250 88.816 C 64.792 88.728,64.004 88.578,63.500 88.483 C 59.004 87.629,54.079 85.426,52.489 83.557 C 52.345 83.388,51.718 82.800,51.097 82.250 C 50.475 81.700,49.581 80.762,49.110 80.167 C 48.638 79.571,48.115 78.933,47.947 78.750 C 47.190 77.922,45.289 73.914,44.865 72.250 C 44.771 71.883,44.610 71.283,44.507 70.917 C 44.104 69.489,44.094 63.927,44.491 62.011 C 45.485 57.218,48.114 53.340,53.267 49.065 C 55.040 47.594,55.024 47.606,56.004 47.048 C 59.099 45.288,61.291 44.449,63.999 43.988 C 65.025 43.813,74.064 43.750,74.332 43.916 C 74.398 43.957,78.682 43.914,83.851 43.821 C 89.021 43.727,101.629 43.598,111.871 43.534 L 130.492 43.417 131.823 42.094 C 135.628 38.311,135.168 33.748,130.674 30.695 C 130.197 30.370,109.373 30.248,100.583 30.518 " stroke="none" fill="#f39b34" fill-rule="evenodd"></path><path id="path1" d="M70.833 0.178 C 63.346 0.342,60.231 0.583,55.750 1.345 C 51.007 2.152,48.109 2.925,43.388 4.643 C 42.022 5.140,41.676 5.286,39.667 6.211 C 36.897 7.485,36.560 7.662,33.000 9.706 C 32.301 10.108,29.209 12.120,28.940 12.349 C 28.836 12.438,28.262 12.863,27.667 13.293 C 27.071 13.724,26.546 14.118,26.500 14.169 C 26.454 14.220,26.042 14.557,25.583 14.919 C 24.753 15.573,24.477 15.813,22.587 17.518 C 20.530 19.373,17.863 22.146,16.500 23.847 C 16.179 24.247,15.804 24.690,15.667 24.832 C 15.529 24.974,14.893 25.801,14.253 26.670 C 13.614 27.539,13.046 28.287,12.991 28.333 C 12.776 28.513,11.500 30.491,11.500 30.644 C 11.500 30.733,11.444 30.831,11.375 30.861 C 11.244 30.919,10.000 32.770,10.000 32.907 C 10.000 32.950,9.764 33.382,9.476 33.868 C 8.405 35.673,7.191 38.011,6.421 39.750 C 6.259 40.117,5.938 40.829,5.708 41.333 C 5.478 41.837,5.232 42.400,5.161 42.583 C 3.281 47.447,2.137 51.350,1.327 55.667 C 1.250 56.079,1.075 56.979,0.938 57.667 C 0.693 58.900,0.500 60.441,0.169 63.798 C -0.401 69.580,0.127 75.723,1.833 83.167 C 2.207 84.796,3.084 87.731,3.503 88.750 C 3.790 89.448,3.915 89.773,4.336 90.917 C 4.539 91.467,4.846 92.235,5.019 92.623 C 5.192 93.012,5.333 93.366,5.333 93.410 C 5.333 93.613,7.953 98.846,8.446 99.628 C 8.751 100.111,9.000 100.544,9.000 100.590 C 9.000 100.636,9.176 100.953,9.390 101.295 C 9.605 101.637,10.111 102.442,10.513 103.083 C 10.916 103.725,11.341 104.349,11.456 104.470 C 11.572 104.591,11.667 104.755,11.667 104.833 C 11.667 104.912,11.763 105.075,11.880 105.196 C 11.997 105.318,12.432 105.904,12.845 106.500 C 13.651 107.660,13.673 107.688,15.026 109.334 C 15.516 109.931,16.215 110.793,16.580 111.251 C 17.807 112.791,22.948 117.838,24.812 119.333 C 25.212 119.654,25.624 119.995,25.728 120.091 C 26.696 120.988,32.000 124.667,32.325 124.667 C 32.406 124.667,32.497 124.729,32.528 124.805 C 32.663 125.141,38.628 128.235,40.583 128.983 C 41.133 129.194,41.733 129.428,41.917 129.504 C 42.411 129.710,44.132 130.315,45.083 130.617 C 47.427 131.362,47.913 131.500,48.186 131.500 C 48.350 131.500,48.657 131.568,48.867 131.651 C 49.928 132.068,55.291 132.873,58.917 133.158 C 67.688 133.847,77.597 134.003,112.250 133.995 C 146.214 133.988,145.297 134.007,146.886 133.254 C 150.951 131.324,150.797 123.632,146.658 121.864 C 145.153 121.222,143.733 121.177,124.417 121.171 C 100.195 121.164,66.780 120.882,64.333 120.666 C 61.754 120.437,59.806 120.187,58.500 119.916 C 57.904 119.792,56.929 119.602,56.333 119.494 C 55.737 119.385,55.025 119.234,54.750 119.157 C 54.475 119.080,53.612 118.854,52.833 118.653 C 51.083 118.202,48.386 117.315,47.083 116.762 C 46.808 116.645,45.983 116.299,45.250 115.992 C 42.271 114.746,35.975 111.114,34.833 109.982 C 34.696 109.846,34.246 109.501,33.833 109.217 C 31.651 107.712,27.071 103.108,25.079 100.417 C 24.807 100.050,24.544 99.712,24.493 99.667 C 24.307 99.499,22.500 96.863,22.500 96.759 C 22.500 96.701,22.419 96.562,22.320 96.451 C 21.784 95.852,19.852 92.210,18.413 89.086 C 17.807 87.770,16.848 85.176,16.502 83.917 C 16.426 83.642,16.166 82.779,15.924 82.000 C 15.682 81.221,15.421 80.283,15.345 79.917 C 14.114 73.996,13.663 70.346,13.668 66.333 C 13.672 63.360,14.358 56.954,14.829 55.500 C 14.904 55.271,15.058 54.633,15.172 54.083 C 15.422 52.878,16.762 48.750,17.659 46.417 C 17.840 45.948,20.399 40.768,20.500 40.667 C 20.546 40.621,20.675 40.433,20.787 40.250 C 20.899 40.067,21.349 39.328,21.787 38.608 C 23.986 34.992,28.493 29.784,31.759 27.083 C 32.203 26.717,32.742 26.248,32.957 26.042 C 33.172 25.835,33.420 25.667,33.508 25.667 C 33.595 25.667,33.667 25.608,33.667 25.536 C 33.667 25.464,33.889 25.274,34.161 25.113 C 34.432 24.953,34.751 24.726,34.869 24.608 C 34.987 24.491,35.721 23.968,36.500 23.445 C 37.279 22.922,37.992 22.436,38.083 22.364 C 38.175 22.292,38.362 22.182,38.500 22.120 C 38.637 22.058,39.050 21.819,39.417 21.590 C 40.055 21.190,44.786 18.814,46.000 18.283 C 47.443 17.652,51.730 16.242,53.417 15.843 C 53.875 15.734,54.512 15.581,54.833 15.502 C 58.278 14.651,66.946 13.788,76.583 13.336 C 82.629 13.052,126.067 13.115,127.868 13.410 C 134.243 14.456,137.203 17.326,136.964 22.232 C 136.768 26.240,134.391 28.865,130.083 29.828 C 129.625 29.931,128.950 30.079,128.583 30.157 C 127.995 30.283,128.071 30.302,129.230 30.317 L 130.543 30.333 131.916 31.708 C 135.445 35.242,135.437 38.573,131.892 42.125 C 131.046 42.973,130.406 43.666,130.469 43.666 C 131.273 43.663,135.606 42.617,136.833 42.130 C 138.238 41.573,140.835 40.169,141.304 39.714 C 141.425 39.596,141.592 39.500,141.674 39.500 C 142.021 39.500,145.256 36.172,146.098 34.949 C 150.538 28.505,151.169 19.009,147.654 11.559 C 144.964 5.858,139.401 1.798,132.514 0.509 C 129.949 0.029,87.996 -0.196,70.833 0.178 M282.583 30.253 C 280.000 30.639,277.265 31.337,275.531 32.052 C 273.655 32.825,273.167 33.062,273.167 33.199 C 273.167 33.273,273.064 33.333,272.938 33.333 C 272.438 33.333,269.080 35.759,267.748 37.083 C 260.986 43.803,260.220 56.622,266.166 63.572 C 266.586 64.063,266.859 64.327,268.083 65.424 C 268.834 66.096,270.905 67.500,271.147 67.500 C 271.234 67.500,271.331 67.562,271.361 67.638 C 271.414 67.770,274.526 69.333,274.735 69.333 C 274.791 69.333,275.155 69.478,275.543 69.655 C 275.932 69.832,276.587 70.092,277.000 70.233 C 277.412 70.374,278.087 70.613,278.500 70.765 C 278.912 70.917,279.475 71.102,279.750 71.178 C 280.282 71.323,281.104 71.554,282.125 71.844 C 282.469 71.942,283.012 72.087,283.333 72.167 C 283.654 72.246,284.217 72.392,284.583 72.491 C 284.950 72.590,285.550 72.738,285.917 72.819 C 290.190 73.765,294.291 75.053,297.000 76.300 C 300.751 78.027,302.489 80.407,302.500 83.833 C 302.523 90.869,294.329 94.546,283.583 92.323 C 281.150 91.819,278.505 90.973,277.333 90.323 C 277.196 90.246,276.528 89.907,275.849 89.569 C 274.052 88.674,270.274 86.217,269.833 85.656 C 269.563 85.313,268.084 84.698,267.079 84.511 C 263.126 83.777,259.670 86.739,259.867 90.692 C 259.964 92.637,261.664 95.667,262.658 95.667 C 262.726 95.667,262.986 95.843,263.237 96.058 C 263.858 96.592,268.147 99.134,269.583 99.820 C 270.225 100.127,271.113 100.555,271.557 100.772 C 272.001 100.989,272.433 101.167,272.517 101.167 C 272.601 101.167,272.988 101.310,273.377 101.486 C 273.765 101.662,274.346 101.885,274.667 101.982 C 274.987 102.080,275.700 102.301,276.250 102.475 C 278.861 103.298,280.545 103.658,284.193 104.172 C 291.840 105.252,302.134 103.277,306.583 99.877 C 306.675 99.807,307.079 99.536,307.482 99.274 C 310.061 97.595,313.089 93.468,314.164 90.167 C 314.358 89.571,314.592 88.858,314.684 88.583 C 316.266 83.833,315.006 74.912,312.314 71.812 C 312.126 71.595,311.771 71.159,311.527 70.844 C 309.777 68.588,306.647 66.438,302.333 64.529 C 300.334 63.645,296.623 62.435,293.750 61.732 C 293.200 61.597,292.487 61.419,292.167 61.337 C 291.846 61.255,291.208 61.099,290.750 60.990 C 289.387 60.667,285.405 59.520,283.750 58.975 C 282.550 58.579,282.356 58.502,281.135 57.938 C 280.614 57.697,280.150 57.500,280.105 57.500 C 279.958 57.500,278.252 56.421,278.194 56.292 C 278.164 56.223,278.062 56.167,277.967 56.167 C 277.872 56.167,277.534 55.885,277.216 55.542 C 272.766 50.741,275.568 43.452,282.417 42.016 C 282.967 41.900,283.731 41.737,284.115 41.653 C 285.726 41.300,289.571 41.533,292.500 42.160 C 295.309 42.761,298.473 44.096,301.750 46.064 C 306.234 48.756,309.384 48.449,311.808 45.083 C 312.903 43.563,312.903 40.104,311.808 38.583 C 311.322 37.910,310.272 36.858,309.884 36.659 C 309.627 36.527,308.911 36.096,308.293 35.702 C 307.105 34.945,303.208 33.032,302.083 32.654 C 301.717 32.531,301.342 32.385,301.250 32.329 C 301.158 32.273,300.746 32.130,300.333 32.011 C 299.921 31.892,299.396 31.736,299.167 31.663 C 298.938 31.591,298.375 31.445,297.917 31.339 C 297.458 31.233,296.821 31.082,296.500 31.005 C 292.912 30.139,285.883 29.759,282.583 30.253 M357.439 30.282 C 355.350 30.921,352.167 33.713,352.167 34.908 C 352.167 34.954,351.899 35.576,351.571 36.288 C 350.993 37.547,350.692 38.217,350.243 39.250 C 350.123 39.525,349.532 40.825,348.929 42.139 C 348.327 43.452,347.833 44.556,347.833 44.592 C 347.833 44.666,347.034 46.443,345.601 49.557 C 345.271 50.275,345.000 50.894,345.000 50.931 C 345.000 50.968,344.748 51.543,344.439 52.208 C 344.131 52.873,343.711 53.792,343.506 54.250 C 343.301 54.708,342.981 55.421,342.795 55.833 C 342.610 56.246,342.397 56.733,342.324 56.917 C 342.250 57.100,341.893 57.887,341.530 58.667 C 341.167 59.446,340.629 60.646,340.335 61.333 C 340.041 62.021,339.555 63.108,339.254 63.750 C 338.954 64.392,338.578 65.217,338.419 65.583 C 338.259 65.950,337.912 66.722,337.648 67.299 C 337.383 67.876,337.167 68.381,337.167 68.421 C 337.167 68.461,336.860 69.151,336.485 69.955 C 336.110 70.759,335.690 71.679,335.551 72.000 C 335.058 73.141,334.381 74.636,333.349 76.864 C 333.065 77.477,332.833 78.017,332.833 78.063 C 332.833 78.109,332.542 78.770,332.186 79.532 C 331.829 80.293,331.372 81.292,331.168 81.750 C 330.820 82.535,330.649 82.926,330.042 84.333 C 329.904 84.654,329.500 85.531,329.145 86.282 C 328.790 87.033,328.500 87.685,328.500 87.733 C 328.500 87.780,328.265 88.328,327.977 88.951 C 326.918 91.244,326.304 92.592,326.170 92.917 C 326.095 93.100,325.807 93.737,325.532 94.333 C 323.439 98.866,324.700 102.509,328.817 103.820 C 329.924 104.172,332.246 103.966,333.245 103.426 C 335.040 102.456,335.603 101.736,336.970 98.667 C 337.154 98.254,337.498 97.483,337.735 96.953 C 337.973 96.424,338.167 95.954,338.167 95.910 C 338.167 95.828,338.564 94.910,339.246 93.417 C 339.995 91.777,340.333 91.002,340.333 90.926 C 340.333 90.883,340.566 90.339,340.851 89.716 C 341.136 89.093,341.428 88.433,341.500 88.250 C 341.572 88.067,341.839 87.485,342.093 86.958 L 342.555 86.000 359.948 86.000 L 377.342 86.000 377.500 86.417 C 377.587 86.647,377.801 87.153,377.975 87.542 C 378.598 88.940,379.545 91.094,379.787 91.667 C 380.155 92.537,380.252 92.761,381.083 94.667 C 381.966 96.691,382.112 97.030,382.317 97.542 C 384.729 103.540,388.697 105.644,392.750 103.076 C 395.988 101.024,396.398 98.174,394.146 93.371 C 393.330 91.630,393.099 91.121,392.583 89.917 C 392.064 88.704,391.839 88.205,391.097 86.611 C 390.677 85.710,390.333 84.944,390.333 84.908 C 390.333 84.839,389.762 83.550,389.007 81.917 C 388.753 81.367,388.432 80.654,388.292 80.333 C 387.799 79.195,387.513 78.557,386.498 76.333 C 385.510 74.170,385.324 73.753,384.731 72.375 C 384.583 72.031,384.254 71.300,383.999 70.750 C 383.745 70.200,383.424 69.487,383.286 69.167 C 382.874 68.208,382.326 66.979,381.838 65.917 C 381.208 64.545,380.669 63.347,380.415 62.750 C 380.126 62.071,379.558 60.805,378.957 59.500 C 378.683 58.904,378.328 58.117,378.168 57.750 C 377.727 56.738,377.181 55.526,376.668 54.417 C 376.413 53.867,376.092 53.154,375.955 52.833 C 375.573 51.937,375.271 51.259,374.250 49.000 C 373.262 46.815,373.005 46.235,372.566 45.208 C 372.419 44.865,372.092 44.133,371.839 43.583 C 371.586 43.033,371.259 42.317,371.114 41.991 C 370.865 41.436,370.155 39.853,369.552 38.509 C 367.311 33.517,366.853 32.777,365.181 31.445 C 363.583 30.171,359.707 29.589,357.439 30.282 M83.208 30.625 C 84.469 30.653,86.531 30.653,87.792 30.625 C 89.052 30.596,88.021 30.573,85.500 30.573 C 82.979 30.573,81.948 30.596,83.208 30.625 M236.917 30.695 C 235.039 31.328,233.633 32.497,232.833 34.087 L 232.417 34.917 232.368 66.917 C 232.330 91.929,232.365 99.062,232.525 99.583 C 232.813 100.516,233.678 101.844,234.350 102.383 C 234.662 102.634,234.996 102.902,235.094 102.980 C 238.358 105.589,243.985 103.307,244.986 98.968 C 245.261 97.779,245.224 36.348,244.948 35.333 C 243.982 31.776,240.195 29.589,236.917 30.695 M166.011 31.678 C 164.273 32.482,163.086 33.937,162.561 35.909 C 162.261 37.035,162.223 96.962,162.521 98.367 C 162.939 100.340,164.177 101.893,166.083 102.837 L 166.917 103.250 189.882 103.293 L 212.847 103.337 213.798 102.891 C 218.691 100.600,218.091 93.710,212.850 92.016 C 212.452 91.888,206.755 91.833,193.725 91.833 L 175.167 91.833 175.167 82.254 L 175.167 72.675 191.542 72.629 C 209.354 72.579,208.092 72.649,209.608 71.636 C 212.939 69.410,212.735 64.154,209.234 61.990 C 207.884 61.156,208.202 61.170,191.125 61.168 L 175.167 61.167 175.167 51.833 L 175.167 42.500 193.768 42.500 L 212.369 42.500 213.414 42.001 C 217.667 39.971,217.714 33.832,213.492 31.710 L 212.417 31.169 189.750 31.176 L 167.083 31.182 166.011 31.678 M108.333 43.667 L 98.083 43.754 111.667 43.773 C 119.138 43.783,126.337 43.739,127.667 43.675 C 130.547 43.536,124.012 43.533,108.333 43.667 M360.328 46.842 C 360.331 46.984,360.397 47.171,360.475 47.258 C 360.553 47.345,360.733 47.717,360.874 48.083 C 361.016 48.450,361.373 49.275,361.668 49.917 C 361.962 50.558,362.280 51.271,362.374 51.500 C 362.839 52.635,363.414 53.965,363.995 55.250 C 364.559 56.496,364.774 56.999,365.137 57.917 C 365.318 58.375,365.778 59.425,366.159 60.250 C 366.541 61.075,366.916 61.900,366.993 62.083 C 367.070 62.267,367.291 62.772,367.483 63.207 C 367.676 63.641,367.833 64.033,367.833 64.077 C 367.833 64.122,368.065 64.666,368.348 65.287 C 368.631 65.909,368.960 66.642,369.079 66.917 C 369.197 67.192,369.453 67.772,369.647 68.207 C 369.841 68.641,370.000 69.032,370.000 69.077 C 370.000 69.121,370.194 69.590,370.431 70.120 C 370.879 71.119,371.220 71.884,371.790 73.167 C 371.973 73.579,372.176 74.085,372.239 74.292 L 372.356 74.667 359.928 74.667 C 351.643 74.667,347.500 74.610,347.500 74.498 C 347.500 74.405,347.566 74.199,347.647 74.039 C 347.728 73.880,347.871 73.563,347.964 73.333 C 348.242 72.647,348.605 71.808,349.080 70.750 C 349.835 69.069,350.208 68.208,350.906 66.533 C 351.148 65.956,351.609 64.906,351.931 64.200 C 352.254 63.494,352.581 62.767,352.659 62.583 C 352.737 62.400,352.958 61.895,353.150 61.460 C 353.343 61.026,353.500 60.631,353.500 60.583 C 353.500 60.498,353.819 59.764,354.587 58.083 C 355.271 56.586,355.667 55.672,355.667 55.589 C 355.667 55.545,355.892 55.017,356.167 54.417 C 356.442 53.816,356.667 53.295,356.667 53.257 C 356.667 53.220,356.883 52.716,357.148 52.137 C 357.413 51.557,357.871 50.521,358.166 49.833 C 359.870 45.866,359.832 45.936,360.096 46.285 C 360.221 46.449,360.325 46.700,360.328 46.842 M47.491 55.039 C 46.220 56.793,44.936 59.984,44.498 62.476 C 44.307 63.563,44.378 64.130,44.582 63.137 C 44.787 62.134,45.345 60.265,45.693 59.417 C 46.578 57.258,47.436 55.443,47.878 54.792 C 48.377 54.056,48.052 54.264,47.491 55.039 M31.271 57.090 C 31.213 57.239,31.173 57.523,31.182 57.722 C 31.192 57.978,31.244 57.920,31.358 57.523 C 31.524 56.947,31.456 56.608,31.271 57.090 M30.924 58.750 C 30.858 59.117,30.699 59.957,30.569 60.618 C 30.431 61.324,30.347 62.630,30.365 63.785 C 30.383 64.866,30.419 65.262,30.446 64.667 C 30.507 63.296,30.797 60.702,31.027 59.473 C 31.125 58.954,31.168 58.429,31.123 58.306 C 31.079 58.184,30.989 58.383,30.924 58.750 M74.083 60.500 C 71.058 60.550,77.958 60.593,89.417 60.596 C 104.601 60.600,107.877 60.571,101.500 60.491 C 91.524 60.366,82.065 60.369,74.083 60.500 M112.042 73.625 C 114.585 73.651,118.748 73.651,121.292 73.625 C 123.835 73.599,121.754 73.578,116.667 73.578 C 111.579 73.578,109.498 73.599,112.042 73.625 M98.467 73.791 C 99.412 73.821,100.912 73.821,101.801 73.791 C 102.689 73.761,101.917 73.737,100.083 73.737 C 98.250 73.737,97.523 73.761,98.467 73.791 M87.458 73.957 C 88.123 73.989,89.210 73.989,89.875 73.957 C 90.540 73.925,89.996 73.900,88.667 73.900 C 87.337 73.900,86.794 73.925,87.458 73.957 M149.701 82.167 C 149.680 83.221,149.627 84.383,149.584 84.750 L 149.505 85.417 149.674 84.755 C 149.767 84.391,149.820 83.229,149.791 82.172 L 149.738 80.250 149.701 82.167 M54.293 84.869 C 54.490 85.105,55.833 85.905,55.833 85.786 C 55.833 85.748,55.445 85.475,54.970 85.180 C 54.495 84.884,54.190 84.744,54.293 84.869 M131.500 89.621 C 131.179 89.765,130.467 89.981,129.917 90.102 L 128.917 90.321 129.861 90.244 C 130.721 90.174,132.333 89.638,132.333 89.423 C 132.333 89.288,132.143 89.334,131.500 89.621 M135.833 102.333 C 135.611 102.477,135.611 102.495,135.833 102.495 C 135.971 102.495,136.196 102.422,136.333 102.333 C 136.556 102.190,136.556 102.172,136.333 102.172 C 136.196 102.172,135.971 102.244,135.833 102.333 " stroke="none" fill="#446cac" fill-rule="evenodd"></path><path id="path2" d="M79.632 30.790 C 80.208 30.823,81.108 30.823,81.632 30.790 C 82.155 30.757,81.683 30.730,80.583 30.730 C 79.483 30.731,79.055 30.758,79.632 30.790 M109.708 43.624 C 110.419 43.655,111.581 43.655,112.292 43.624 C 113.002 43.593,112.421 43.567,111.000 43.567 C 109.579 43.567,108.998 43.593,109.708 43.624 M92.296 73.789 C 92.688 73.824,93.288 73.824,93.629 73.788 C 93.971 73.752,93.650 73.723,92.917 73.724 C 92.183 73.724,91.904 73.754,92.296 73.789 " stroke="none" fill="#9c8474" fill-rule="evenodd"></path><path id="path3" d="M128.213 30.456 C 128.652 30.490,129.327 30.490,129.713 30.455 C 130.100 30.420,129.742 30.392,128.917 30.392 C 128.092 30.393,127.775 30.422,128.213 30.456 M94.875 30.623 C 95.402 30.656,96.265 30.656,96.792 30.623 C 97.319 30.590,96.888 30.563,95.833 30.563 C 94.779 30.563,94.348 30.590,94.875 30.623 M83.375 30.790 C 83.902 30.823,84.765 30.823,85.292 30.790 C 85.819 30.757,85.388 30.730,84.333 30.730 C 83.279 30.730,82.848 30.757,83.375 30.790 M131.824 42.125 L 131.250 42.750 131.875 42.176 C 132.457 41.641,132.577 41.500,132.449 41.500 C 132.422 41.500,132.140 41.781,131.824 42.125 M129.208 43.453 C 129.460 43.491,129.873 43.491,130.125 43.453 C 130.377 43.415,130.171 43.383,129.667 43.383 C 129.162 43.383,128.956 43.415,129.208 43.453 M104.633 43.624 C 105.394 43.655,106.594 43.655,107.300 43.624 C 108.006 43.593,107.383 43.567,105.917 43.567 C 104.450 43.568,103.872 43.593,104.633 43.624 M66.963 43.863 C 67.121 43.926,68.862 43.968,70.833 43.958 C 74.903 43.937,74.420 43.861,69.796 43.795 C 68.080 43.770,66.805 43.801,66.963 43.863 M89.300 43.791 C 90.060 43.822,91.260 43.822,91.966 43.790 C 92.672 43.759,92.050 43.734,90.583 43.734 C 89.117 43.734,88.539 43.760,89.300 43.791 M30.539 64.167 C 30.539 64.487,30.573 64.619,30.615 64.458 C 30.657 64.298,30.657 64.035,30.615 63.875 C 30.573 63.715,30.539 63.846,30.539 64.167 M114.542 73.458 C 115.619 73.487,117.381 73.487,118.458 73.458 C 119.535 73.429,118.654 73.405,116.500 73.405 C 114.346 73.405,113.465 73.429,114.542 73.458 M125.347 73.393 C 125.385 73.426,125.717 73.499,126.083 73.555 C 126.537 73.625,126.670 73.606,126.500 73.498 C 126.272 73.353,125.185 73.254,125.347 73.393 M100.800 73.624 C 101.560 73.655,102.760 73.655,103.466 73.624 C 104.172 73.593,103.550 73.567,102.083 73.567 C 100.617 73.568,100.039 73.593,100.800 73.624 M86.625 73.784 C 86.831 73.824,87.169 73.824,87.375 73.784 C 87.581 73.745,87.412 73.712,87.000 73.712 C 86.587 73.712,86.419 73.745,86.625 73.784 M89.625 73.789 C 90.015 73.824,90.652 73.824,91.042 73.789 C 91.431 73.754,91.112 73.725,90.333 73.725 C 89.554 73.725,89.235 73.754,89.625 73.789 M78.875 73.953 C 79.127 73.991,79.540 73.991,79.792 73.953 C 80.044 73.915,79.837 73.883,79.333 73.883 C 78.829 73.883,78.623 73.915,78.875 73.953 M81.625 73.955 C 82.015 73.990,82.652 73.990,83.042 73.955 C 83.431 73.920,83.112 73.892,82.333 73.892 C 81.554 73.892,81.235 73.920,81.625 73.955 M149.557 82.417 C 149.558 83.150,149.587 83.429,149.622 83.037 C 149.657 82.645,149.657 82.045,149.621 81.704 C 149.585 81.363,149.557 81.683,149.557 82.417 " stroke="none" fill="#ab846c" fill-rule="evenodd"></path><path id="path4" d="M90.965 30.624 C 91.541 30.656,92.441 30.656,92.965 30.623 C 93.488 30.590,93.017 30.563,91.917 30.564 C 90.817 30.564,90.388 30.591,90.965 30.624 M76.375 30.789 C 76.810 30.824,77.523 30.824,77.958 30.789 C 78.394 30.755,78.037 30.727,77.167 30.727 C 76.296 30.727,75.940 30.755,76.375 30.789 M114.708 43.624 C 115.419 43.655,116.581 43.655,117.292 43.624 C 118.002 43.593,117.421 43.567,116.000 43.567 C 114.579 43.567,113.998 43.593,114.708 43.624 M94.375 43.791 C 95.085 43.822,96.248 43.822,96.958 43.791 C 97.669 43.759,97.087 43.734,95.667 43.734 C 94.246 43.734,93.665 43.759,94.375 43.791 M121.625 73.457 C 122.290 73.489,123.377 73.489,124.042 73.457 C 124.706 73.425,124.162 73.400,122.833 73.400 C 121.504 73.400,120.960 73.425,121.625 73.457 M105.380 73.623 C 105.818 73.657,106.493 73.657,106.880 73.622 C 107.267 73.587,106.908 73.559,106.083 73.559 C 105.258 73.560,104.942 73.588,105.380 73.623 M94.792 73.789 C 95.181 73.824,95.819 73.824,96.208 73.789 C 96.598 73.754,96.279 73.725,95.500 73.725 C 94.721 73.725,94.402 73.754,94.792 73.789 M84.292 73.955 C 84.681 73.990,85.319 73.990,85.708 73.955 C 86.098 73.920,85.779 73.892,85.000 73.892 C 84.221 73.892,83.902 73.920,84.292 73.955 " stroke="none" fill="#827887" fill-rule="evenodd"></path></g></svg>