<svg id="svg" version="1.1" xmlns="http://www.w3.org/2000/svg" xmlns:xlink="http://www.w3.org/1999/xlink" width="400" height="116.73101673101674" viewBox="0, 0, 400,116.73101673101674"><g id="svgg"><path id="path0" d="M208.541 6.184 C 207.663 6.619,206.507 7.886,205.745 9.248 L 205.167 10.282 205.167 19.042 L 205.167 27.801 203.375 27.911 C 201.322 28.036,201.098 28.121,199.881 29.231 C 197.581 31.327,197.435 33.643,199.448 36.125 C 200.218 37.074,200.326 37.118,202.428 37.329 C 204.691 37.557,204.914 37.604,205.238 37.929 C 205.472 38.163,205.500 39.736,205.500 52.680 C 205.500 69.998,205.491 69.917,207.931 73.594 C 212.871 81.036,227.299 83.745,229.095 77.568 C 230.230 73.665,228.346 71.714,223.250 71.513 C 219.479 71.365,217.627 70.408,216.124 67.831 C 214.990 65.887,215.000 66.041,215.000 51.128 L 215.000 37.667 218.803 37.667 L 222.605 37.667 223.615 36.703 C 226.283 34.156,226.212 31.473,223.405 28.847 L 222.362 27.871 218.598 27.749 L 214.833 27.626 214.833 18.967 L 214.833 10.308 214.183 9.196 C 212.447 6.225,210.528 5.201,208.541 6.184 M297.096 27.860 C 296.185 28.340,294.961 29.644,294.169 30.977 L 293.500 32.103 293.500 54.061 L 293.500 76.018 294.199 77.051 C 297.507 81.935,300.372 82.152,302.447 77.675 C 303.285 75.866,303.328 75.238,303.564 61.583 L 303.778 49.250 304.577 47.667 C 309.363 38.181,317.805 34.916,327.025 38.984 L 328.469 39.622 329.751 38.936 C 336.633 35.256,332.763 29.366,322.778 28.323 C 317.704 27.793,309.052 30.115,305.945 32.841 C 303.955 34.587,302.503 34.436,302.496 32.482 C 302.483 28.958,299.635 26.521,297.096 27.860 M364.167 27.990 C 353.340 29.142,344.156 35.997,340.718 45.492 C 338.361 52.002,339.184 61.823,342.472 66.417 C 351.946 79.655,363.731 83.899,376.012 78.495 C 381.214 76.206,383.237 74.308,383.835 71.159 C 384.303 68.692,382.759 66.786,379.991 66.415 C 379.584 66.361,379.017 66.281,378.733 66.238 C 378.283 66.171,377.903 66.392,375.816 67.943 C 368.307 73.519,361.815 73.460,355.274 67.755 C 353.031 65.799,348.833 60.222,348.833 59.199 C 348.833 59.046,353.458 59.000,368.801 59.000 L 388.768 59.000 389.509 58.530 C 392.253 56.788,392.592 52.574,390.463 46.667 C 385.949 34.139,375.580 26.775,364.167 27.990 M258.000 28.113 C 239.252 29.313,227.711 48.884,235.766 65.816 C 244.812 84.827,271.586 85.893,282.275 67.667 C 292.800 49.720,278.726 26.788,258.000 28.113 M261.885 36.680 C 278.157 39.130,282.206 60.835,267.917 69.018 C 257.768 74.830,244.871 69.032,242.323 57.511 C 239.741 45.837,250.018 34.894,261.885 36.680 M369.083 37.722 C 374.552 39.416,378.473 42.323,380.720 46.348 C 381.133 47.087,381.833 48.973,381.833 49.344 C 381.833 49.534,364.221 49.463,353.203 49.228 L 348.490 49.128 349.017 48.189 C 353.572 40.074,362.180 35.583,369.083 37.722 " stroke="none" fill="#45b34c" fill-rule="evenodd"></path><path id="path1" d="M37.000 5.767 C 6.265 9.861,-6.581 47.347,15.242 69.263 C 36.371 90.482,73.015 79.177,78.489 49.750 C 83.113 24.894,61.938 2.446,37.000 5.767 M45.417 15.339 C 68.507 17.979,78.242 46.347,61.645 62.634 C 47.115 76.893,22.584 71.038,16.020 51.745 C 9.505 32.594,25.296 13.039,45.417 15.339 " stroke="none" fill="#d6272e" fill-rule="evenodd"></path><path id="path2" d="M110.333 28.605 C 100.206 29.869,91.769 36.755,88.610 46.333 C 87.241 50.483,87.331 48.438,87.332 75.191 L 87.333 98.966 88.110 100.518 C 90.348 104.988,92.971 105.011,95.552 100.581 L 96.327 99.250 96.330 86.875 C 96.332 80.069,96.372 74.500,96.418 74.500 C 96.465 74.500,97.046 74.898,97.710 75.385 C 109.852 84.295,126.757 81.370,135.064 68.924 C 140.733 60.431,140.783 48.719,135.188 40.333 C 129.649 32.031,119.867 27.415,110.333 28.605 M117.833 38.412 C 131.616 42.077,135.508 59.574,124.583 68.761 C 115.147 76.697,100.553 72.400,96.767 60.570 C 92.629 47.638,104.717 34.925,117.833 38.412 " stroke="none" fill="#344ca4" fill-rule="evenodd"></path><path id="path3" d="M166.500 1.093 C 165.036 1.294,164.121 1.538,162.167 2.250 C 161.069 2.650,158.385 3.973,157.372 4.612 C 156.889 4.917,156.454 5.167,156.406 5.167 C 156.277 5.167,154.426 6.562,154.361 6.708 C 154.331 6.777,154.216 6.833,154.106 6.833 C 153.997 6.833,153.791 6.965,153.648 7.125 C 153.505 7.285,153.057 7.726,152.653 8.105 C 151.021 9.630,149.808 11.103,148.545 13.093 C 148.220 13.604,147.000 16.093,147.000 16.244 C 147.000 16.319,146.858 16.688,146.684 17.065 C 145.515 19.601,144.664 25.488,144.899 29.412 L 145.012 31.309 146.006 33.248 C 146.553 34.315,147.000 35.318,147.000 35.477 C 147.000 35.636,147.060 35.838,147.133 35.925 C 147.207 36.012,147.444 36.533,147.660 37.083 C 147.876 37.633,148.175 38.271,148.324 38.500 C 148.473 38.729,148.705 39.134,148.839 39.399 C 149.134 39.984,151.677 42.544,153.167 43.755 C 155.544 45.687,159.686 47.820,164.821 49.754 C 174.489 53.397,175.870 54.408,176.579 58.357 C 176.634 58.665,176.572 59.667,176.441 60.583 C 175.516 67.050,169.281 70.554,163.500 67.856 C 162.743 67.502,161.834 66.593,160.458 64.811 C 156.672 59.912,150.468 58.378,146.846 61.446 C 141.945 65.597,140.682 69.674,142.825 74.421 C 143.074 74.973,143.329 75.628,143.392 75.876 C 143.521 76.391,144.679 78.162,144.888 78.165 C 144.964 78.166,145.591 78.767,146.282 79.502 C 157.062 90.961,176.307 91.719,187.137 81.112 C 194.546 73.857,197.509 62.209,194.562 51.934 C 194.249 50.843,194.026 49.918,194.066 49.879 C 194.299 49.646,191.575 44.222,191.128 44.028 C 191.058 43.997,191.000 43.898,191.000 43.808 C 191.000 43.658,190.615 43.100,189.754 42.003 C 189.077 41.141,185.742 37.844,185.542 37.839 C 185.427 37.836,185.333 37.773,185.333 37.698 C 185.333 37.546,183.384 36.167,183.168 36.167 C 183.091 36.167,183.003 36.098,182.972 36.014 C 182.844 35.660,178.212 33.333,177.637 33.333 C 177.511 33.333,177.260 33.233,177.079 33.111 C 176.898 32.989,176.188 32.719,175.500 32.510 C 174.813 32.301,173.950 32.035,173.583 31.920 C 173.217 31.805,172.354 31.539,171.667 31.329 C 170.979 31.119,170.117 30.852,169.750 30.735 C 168.872 30.456,168.142 30.273,167.833 30.254 C 165.342 30.104,163.840 26.472,165.153 23.774 C 166.192 21.638,168.315 20.623,171.140 20.911 L 172.250 21.024 174.363 23.157 C 178.336 27.169,179.705 27.920,183.000 27.892 C 190.506 27.827,194.691 19.912,191.028 12.709 C 190.783 12.228,190.527 11.834,190.458 11.834 C 190.390 11.834,190.333 11.755,190.333 11.660 C 190.333 11.092,187.530 8.008,185.837 6.713 C 185.331 6.326,184.826 5.932,184.715 5.838 C 184.605 5.744,184.473 5.667,184.422 5.667 C 184.371 5.667,183.974 5.423,183.539 5.125 C 183.104 4.827,182.223 4.328,181.582 4.016 C 180.941 3.703,180.154 3.317,179.833 3.157 C 176.248 1.369,170.728 0.515,166.500 1.093 M37.917 1.586 C 36.542 1.699,34.956 1.913,34.393 2.062 C 33.829 2.211,33.186 2.333,32.964 2.333 C 32.741 2.333,32.227 2.434,31.821 2.558 C 31.415 2.682,30.521 2.951,29.833 3.157 C 29.146 3.363,28.337 3.637,28.036 3.766 C 27.735 3.895,27.378 4.000,27.242 4.000 C 27.106 4.000,26.865 4.072,26.706 4.160 C 26.547 4.248,25.855 4.559,25.168 4.850 C 23.409 5.598,20.339 7.210,19.344 7.909 C 18.882 8.234,18.462 8.500,18.411 8.500 C 18.361 8.500,18.229 8.577,18.118 8.671 C 18.007 8.765,17.054 9.505,16.000 10.315 C 14.305 11.618,10.833 14.781,10.833 15.022 C 10.833 15.072,10.550 15.411,10.203 15.775 C 9.593 16.416,7.333 19.273,7.333 19.403 C 7.333 19.472,6.254 21.141,6.030 21.419 C 5.468 22.115,3.249 26.562,2.829 27.833 C 2.753 28.063,2.492 28.775,2.249 29.417 C 1.580 31.180,1.027 33.334,0.387 36.667 C -0.051 38.951,-0.058 47.860,0.377 50.083 C 0.845 52.478,1.192 54.045,1.371 54.583 C 1.462 54.858,1.595 55.346,1.666 55.667 C 1.738 55.987,1.997 56.775,2.244 57.417 C 2.490 58.058,2.751 58.771,2.824 59.000 C 3.098 59.859,4.527 62.818,5.199 63.917 C 5.367 64.192,5.550 64.548,5.605 64.708 C 5.660 64.869,5.771 65.000,5.850 65.000 C 5.930 65.000,6.356 65.546,6.798 66.213 C 10.969 72.512,16.553 77.518,22.976 80.718 C 46.882 92.627,75.785 79.692,82.392 54.127 C 82.608 53.290,82.826 52.713,82.875 52.844 C 82.924 52.976,82.923 63.632,82.872 76.525 C 82.798 95.178,82.822 100.081,82.990 100.525 C 83.565 102.052,84.260 103.629,84.531 104.026 C 84.697 104.269,84.833 104.516,84.833 104.574 C 84.833 104.873,87.244 107.219,88.228 107.878 C 92.313 110.612,97.158 108.335,100.235 102.233 L 101.000 100.715 101.000 91.840 C 101.000 83.449,101.016 82.971,101.292 83.092 C 125.055 93.524,150.305 70.904,142.698 46.000 C 142.460 45.221,142.253 44.433,142.239 44.250 C 142.196 43.714,141.028 41.193,140.077 39.583 C 139.860 39.217,139.627 38.804,139.560 38.667 C 139.414 38.369,138.323 36.786,138.182 36.667 C 138.128 36.621,137.823 36.246,137.506 35.833 C 131.985 28.666,123.020 24.417,113.417 24.417 C 110.085 24.417,106.819 24.876,104.583 25.658 C 104.125 25.819,103.337 26.085,102.833 26.251 C 100.458 27.030,96.867 29.012,94.583 30.803 C 93.098 31.968,89.876 35.216,89.157 36.273 C 88.854 36.719,88.507 37.143,88.386 37.217 C 88.266 37.290,88.167 37.418,88.167 37.501 C 88.167 37.584,87.979 37.928,87.750 38.266 C 87.521 38.604,87.333 39.019,87.333 39.190 C 87.333 39.360,87.272 39.500,87.197 39.500 C 87.007 39.500,85.664 36.495,85.666 36.075 C 85.666 35.887,85.603 35.662,85.526 35.575 C 85.449 35.488,85.064 34.667,84.671 33.750 C 83.756 31.614,82.987 30.000,82.885 30.000 C 82.841 30.000,82.858 30.816,82.923 31.812 C 83.047 33.726,82.827 34.902,82.605 33.512 C 82.544 33.131,82.120 31.681,81.664 30.291 C 81.207 28.901,80.833 27.669,80.833 27.555 C 80.833 27.353,79.803 25.007,79.492 24.500 C 79.407 24.363,79.228 24.025,79.092 23.750 C 77.207 19.921,73.720 15.472,69.810 11.905 C 68.491 10.701,64.826 8.000,64.512 8.000 C 64.436 8.000,64.285 7.893,64.177 7.762 C 64.068 7.631,63.628 7.337,63.198 7.110 C 62.768 6.882,62.079 6.502,61.667 6.266 C 61.254 6.031,60.804 5.793,60.667 5.738 C 60.529 5.683,59.873 5.382,59.208 5.069 C 58.543 4.756,57.954 4.500,57.900 4.500 C 57.845 4.500,57.564 4.395,57.275 4.267 C 56.986 4.138,56.600 3.994,56.417 3.946 C 56.233 3.897,55.446 3.639,54.667 3.371 C 53.887 3.104,52.650 2.753,51.917 2.592 C 51.183 2.431,50.096 2.189,49.500 2.053 C 46.812 1.443,42.012 1.249,37.917 1.586 M208.333 1.814 C 206.463 2.430,202.833 5.151,202.833 5.938 C 202.833 6.048,202.777 6.164,202.708 6.194 C 202.496 6.289,201.750 7.529,201.195 8.709 L 200.667 9.834 200.667 16.917 C 200.667 23.070,200.634 24.000,200.419 24.000 C 200.147 24.000,198.450 24.991,198.361 25.202 C 198.331 25.274,198.206 25.333,198.083 25.333 C 197.961 25.333,197.836 25.392,197.806 25.465 C 197.775 25.537,197.424 25.855,197.024 26.173 C 193.247 29.178,192.567 34.546,195.420 38.838 C 195.845 39.477,196.252 40.000,196.326 40.000 C 196.399 40.000,196.987 40.442,197.631 40.982 C 198.744 41.914,198.861 41.969,199.947 42.078 L 201.092 42.193 201.088 55.555 C 201.083 71.092,201.072 70.988,203.149 74.833 C 203.521 75.521,203.896 76.242,203.983 76.436 C 204.070 76.631,204.316 76.931,204.529 77.103 C 204.742 77.276,205.366 77.933,205.914 78.563 C 211.457 84.933,223.249 87.986,229.330 84.625 C 235.394 81.274,235.707 71.748,229.853 68.696 C 228.029 67.746,224.221 67.056,222.949 67.446 C 221.782 67.805,220.376 66.905,219.931 65.515 C 219.603 64.493,219.615 64.996,219.642 53.125 L 219.667 42.667 221.929 42.667 L 224.192 42.667 225.419 41.743 C 232.120 36.700,231.844 28.964,224.802 24.408 L 223.686 23.686 221.580 23.786 L 219.473 23.885 219.516 16.729 L 219.558 9.572 219.011 8.495 C 217.550 5.620,215.455 3.349,213.367 2.376 C 212.022 1.749,209.416 1.458,208.333 1.814 M173.043 5.349 C 184.536 7.644,192.211 18.696,184.927 22.462 C 182.502 23.716,180.902 23.089,177.333 19.485 C 174.142 16.261,172.499 15.560,168.952 15.910 C 161.076 16.686,157.204 25.727,162.269 31.514 C 163.814 33.280,164.105 33.419,169.750 35.079 C 175.356 36.728,177.999 37.825,180.765 39.650 C 198.374 51.271,192.113 80.800,171.504 83.327 C 162.757 84.399,155.085 81.862,149.472 76.039 C 145.652 72.075,145.119 68.294,148.001 65.598 C 150.952 62.838,153.762 63.486,157.110 67.700 C 159.402 70.585,160.829 71.581,163.750 72.337 C 172.603 74.628,180.910 68.197,180.871 59.083 C 180.849 53.770,178.588 50.457,173.257 47.923 C 171.834 47.246,170.859 46.851,165.000 44.577 C 156.434 41.251,153.237 38.632,151.096 33.185 C 150.757 32.324,150.212 31.087,149.884 30.435 L 149.287 29.250 149.386 26.250 C 149.685 17.274,153.216 11.399,160.704 7.418 C 162.670 6.373,165.225 5.403,166.583 5.185 C 167.225 5.082,167.938 4.968,168.167 4.930 C 168.924 4.807,171.391 5.019,173.043 5.349 M46.000 5.680 C 73.574 8.759,88.376 40.420,73.007 63.448 C 56.976 87.466,20.987 85.322,8.244 59.589 C -4.954 32.938,16.447 2.382,46.000 5.680 M211.250 5.985 C 212.146 6.404,213.056 7.330,214.028 8.813 L 214.833 10.043 214.833 18.855 L 214.833 27.667 217.792 27.668 C 222.276 27.670,222.322 27.680,223.587 28.926 C 226.289 31.589,226.311 34.214,223.653 36.750 L 222.691 37.667 218.846 37.667 L 215.000 37.667 215.003 50.875 C 215.005 61.875,215.047 64.278,215.252 65.250 C 216.084 69.198,219.257 71.721,223.000 71.413 C 227.223 71.064,229.485 72.867,229.299 76.432 C 228.893 84.229,212.585 81.651,207.455 72.979 C 205.365 69.444,205.333 69.137,205.333 52.158 C 205.333 40.553,205.294 38.008,205.110 37.855 C 204.987 37.753,204.143 37.595,203.235 37.504 C 200.432 37.222,200.430 37.222,199.586 36.318 C 196.316 32.823,198.559 27.833,203.400 27.833 L 205.000 27.833 205.000 19.161 L 205.000 10.489 205.400 9.700 C 207.006 6.531,209.299 5.074,211.250 5.985 M38.833 15.416 C 15.953 18.502,6.508 46.106,22.754 62.406 C 39.344 79.051,67.929 68.486,69.820 45.010 C 71.216 27.676,55.961 13.107,38.833 15.416 M45.750 20.411 C 53.065 21.459,59.343 25.848,62.917 32.417 C 63.748 33.942,64.291 35.258,64.413 36.042 C 64.460 36.340,64.608 36.958,64.743 37.417 C 65.776 40.935,65.765 45.877,64.714 49.500 C 64.414 50.536,63.349 53.330,63.157 53.583 C 63.088 53.675,62.789 54.200,62.491 54.750 C 61.921 55.805,60.844 57.378,60.628 57.472 C 60.558 57.503,60.500 57.617,60.500 57.727 C 60.500 57.836,60.369 58.043,60.208 58.185 C 60.048 58.328,59.608 58.776,59.231 59.181 C 58.853 59.586,58.153 60.254,57.676 60.667 C 57.198 61.079,56.719 61.493,56.612 61.587 C 55.827 62.271,54.220 63.279,52.583 64.114 C 45.904 67.523,36.733 67.125,30.583 63.159 C 30.308 62.982,29.971 62.785,29.833 62.721 C 28.490 62.099,23.500 57.174,23.500 56.471 C 23.500 56.395,23.401 56.333,23.280 56.333 C 23.012 56.333,21.836 54.313,21.075 52.545 C 13.947 35.983,27.869 17.852,45.750 20.411 M296.819 23.574 C 294.034 24.342,291.290 26.994,289.502 30.644 L 288.983 31.704 289.033 38.510 C 289.078 44.646,288.994 46.297,288.731 44.402 C 288.622 43.623,288.585 43.526,287.604 41.500 C 286.529 39.278,284.604 36.167,284.305 36.167 C 284.229 36.167,284.167 36.085,284.167 35.986 C 284.167 35.538,279.129 30.500,278.681 30.500 C 278.582 30.500,278.500 30.438,278.500 30.361 C 278.500 30.245,277.635 29.610,276.534 28.917 C 274.364 27.551,271.914 26.362,269.917 25.706 C 267.908 25.046,267.596 24.956,266.516 24.724 C 260.981 23.533,254.385 23.910,249.500 25.695 C 247.908 26.277,247.259 26.530,246.958 26.684 C 246.297 27.023,246.027 27.159,244.833 27.754 C 244.146 28.097,243.546 28.431,243.500 28.497 C 243.454 28.563,243.229 28.713,243.000 28.831 C 241.415 29.644,237.277 33.264,235.750 35.173 C 235.024 36.081,234.000 37.491,234.000 37.583 C 234.000 37.637,233.850 37.842,233.667 38.038 C 233.483 38.235,233.333 38.483,233.333 38.589 C 233.333 38.696,232.861 39.713,232.284 40.850 C 231.707 41.987,231.027 43.517,230.772 44.250 C 230.517 44.983,230.169 45.883,229.998 46.250 C 228.864 48.694,228.355 56.266,229.069 60.083 C 229.509 62.435,230.246 65.042,230.884 66.500 C 231.024 66.821,231.262 67.383,231.414 67.750 C 231.565 68.117,231.850 68.717,232.049 69.083 C 232.247 69.450,232.547 70.026,232.716 70.363 C 232.885 70.700,233.205 71.172,233.427 71.412 C 233.649 71.652,234.255 72.426,234.774 73.132 C 249.068 92.605,279.314 88.829,288.304 66.451 C 288.665 65.552,289.013 64.765,289.078 64.701 C 289.142 64.636,289.179 67.583,289.160 71.250 C 289.140 74.917,289.190 78.068,289.271 78.253 C 289.473 78.721,290.715 80.571,290.872 80.639 C 290.942 80.669,291.000 80.775,291.000 80.873 C 291.000 81.055,293.042 83.070,294.259 84.088 C 298.563 87.689,304.302 85.756,306.810 79.861 C 307.831 77.461,307.847 77.329,308.013 69.750 C 308.098 65.900,308.232 60.065,308.312 56.784 L 308.457 50.818 309.082 49.617 C 312.941 42.202,320.041 40.189,327.099 44.509 L 328.221 45.196 329.890 44.476 C 337.372 41.243,339.929 35.718,336.445 30.313 C 335.783 29.285,333.869 27.418,333.300 27.244 C 333.089 27.180,332.804 27.031,332.667 26.914 C 332.529 26.796,331.929 26.503,331.333 26.262 C 330.737 26.022,330.137 25.763,330.000 25.688 C 329.671 25.507,327.590 24.933,325.917 24.560 C 324.011 24.135,318.031 24.140,316.000 24.567 C 312.544 25.295,310.321 25.960,308.417 26.838 C 308.050 27.007,307.379 27.314,306.926 27.520 L 306.102 27.894 305.760 27.405 C 305.412 26.909,303.420 24.888,302.979 24.583 C 301.388 23.486,298.722 23.049,296.819 23.574 M364.917 23.761 C 360.090 24.418,356.648 25.255,354.611 26.266 C 354.352 26.395,354.064 26.500,353.971 26.500 C 353.745 26.500,349.940 28.353,349.830 28.517 C 349.782 28.588,349.557 28.725,349.330 28.823 C 347.755 29.496,341.333 35.174,341.333 35.893 C 341.333 35.942,341.164 36.166,340.956 36.390 C 340.749 36.614,340.386 37.161,340.150 37.607 C 339.914 38.052,339.395 38.942,338.997 39.583 C 337.648 41.756,336.392 44.944,335.649 48.083 C 335.541 48.542,335.383 49.005,335.299 49.112 C 334.785 49.772,334.767 57.369,335.274 59.750 C 335.410 60.392,335.591 61.292,335.675 61.750 C 335.984 63.441,337.124 66.824,337.808 68.083 C 338.281 68.953,339.292 70.358,339.402 70.298 C 339.449 70.271,340.142 71.075,340.942 72.083 C 351.599 85.517,365.388 89.265,379.250 82.498 C 383.788 80.283,385.747 78.747,386.910 76.495 C 389.376 71.722,389.153 68.005,386.226 65.078 L 385.148 64.000 387.552 64.000 L 389.955 64.000 391.175 63.390 C 396.698 60.627,398.036 53.686,394.682 45.202 C 394.490 44.718,394.333 44.173,394.333 43.992 C 394.333 42.597,389.223 34.329,387.819 33.453 C 387.644 33.343,387.500 33.191,387.500 33.116 C 387.500 32.911,385.756 31.265,384.333 30.125 C 383.646 29.575,383.058 29.059,383.028 28.979 C 382.997 28.899,382.909 28.833,382.832 28.833 C 382.756 28.833,382.215 28.515,381.631 28.125 C 381.047 27.735,379.898 27.087,379.076 26.683 C 378.255 26.280,377.367 25.839,377.103 25.703 C 376.838 25.566,376.388 25.397,376.103 25.325 C 375.817 25.254,375.358 25.121,375.083 25.029 C 373.879 24.626,373.300 24.487,371.497 24.168 C 369.671 23.845,365.978 23.616,364.917 23.761 M299.754 27.645 C 301.368 28.378,302.424 30.054,302.545 32.074 C 302.685 34.418,303.604 34.656,305.762 32.909 C 309.120 30.190,315.295 28.282,320.750 28.278 C 331.926 28.269,337.502 35.001,329.687 39.068 L 328.457 39.708 327.853 39.414 C 318.384 34.805,309.797 37.830,304.742 47.556 L 303.861 49.250 303.669 59.000 C 303.344 75.520,303.327 75.849,302.685 77.367 C 300.656 82.165,297.760 82.180,294.366 77.410 L 293.333 75.957 293.333 54.100 L 293.333 32.242 293.958 31.175 C 295.724 28.160,297.929 26.816,299.754 27.645 M372.167 28.469 C 379.179 30.313,385.161 35.403,388.740 42.571 C 392.384 49.867,392.951 55.210,390.366 57.889 C 389.207 59.090,390.956 59.000,368.824 59.000 C 350.223 59.000,348.805 59.020,348.904 59.277 C 349.926 61.940,354.510 67.379,357.333 69.279 C 363.438 73.386,369.081 72.925,375.929 67.758 L 378.083 66.133 379.083 66.226 C 384.897 66.769,385.829 72.541,380.667 76.032 C 372.790 81.358,363.560 82.272,355.732 78.499 C 349.358 75.426,342.481 68.241,340.700 62.792 C 335.242 46.093,345.444 30.668,363.750 27.938 C 365.525 27.674,370.284 27.974,372.167 28.469 M262.798 28.245 C 275.340 29.900,284.829 39.833,285.808 52.333 C 287.209 70.219,270.994 84.136,253.417 80.133 C 251.905 79.789,251.707 79.726,249.583 78.914 C 243.848 76.722,238.448 71.639,235.687 65.833 C 226.725 46.986,242.201 25.529,262.798 28.245 M117.795 28.761 C 130.827 31.318,139.435 41.645,139.389 54.667 C 139.314 75.898,115.377 88.114,98.083 75.747 L 96.583 74.674 96.500 86.964 L 96.417 99.254 95.696 100.512 C 92.984 105.252,90.384 105.193,87.891 100.333 L 87.250 99.083 87.207 74.864 C 87.183 61.544,87.225 50.683,87.299 50.729 C 87.374 50.775,87.527 50.274,87.640 49.615 C 89.958 36.004,104.268 26.108,117.795 28.761 M257.250 36.677 C 241.853 38.743,236.540 58.383,248.865 67.671 C 260.665 76.562,277.348 67.693,276.620 52.917 C 276.135 43.068,266.958 35.374,257.250 36.677 M362.750 37.520 C 359.109 38.237,355.956 40.048,352.962 43.141 C 351.193 44.968,348.667 48.419,348.667 49.008 C 348.667 49.069,354.235 49.168,361.042 49.227 C 367.848 49.287,375.314 49.383,377.634 49.441 L 381.851 49.547 381.737 49.065 C 380.091 42.105,370.152 36.061,362.750 37.520 M110.500 38.156 C 94.992 41.005,90.786 61.163,103.890 69.839 C 119.072 79.891,137.649 62.240,128.430 46.524 C 124.859 40.436,117.298 36.907,110.500 38.156 M262.750 41.905 C 267.305 43.111,271.716 47.707,272.095 51.642 C 272.619 57.079,271.432 60.805,268.264 63.662 C 267.906 63.985,267.531 64.326,267.431 64.420 C 267.078 64.751,264.977 66.000,264.774 66.000 C 264.660 66.000,264.495 66.068,264.408 66.152 C 262.898 67.602,255.720 67.322,253.644 65.732 C 253.519 65.636,253.079 65.365,252.667 65.129 C 246.389 61.546,244.690 52.819,249.100 46.811 C 252.149 42.657,257.851 40.608,262.750 41.905 M368.667 42.760 C 370.531 43.411,373.284 44.850,373.579 45.327 C 373.697 45.517,367.372 45.530,361.278 45.352 L 357.806 45.250 358.778 44.565 C 361.999 42.297,365.508 41.656,368.667 42.760 M116.492 43.184 C 126.333 45.386,129.835 57.665,122.667 64.833 C 117.562 69.938,109.650 69.973,104.590 64.912 C 104.271 64.594,103.950 64.333,103.874 64.333 C 103.624 64.333,102.474 62.646,101.902 61.440 C 97.293 51.724,105.995 40.835,116.492 43.184 M374.079 64.318 C 371.352 66.960,367.196 68.519,364.230 68.013 C 362.263 67.677,357.667 64.980,357.667 64.163 C 357.667 64.059,360.702 64.000,366.037 64.000 C 374.281 64.000,374.402 64.005,374.079 64.318 " stroke="none" fill="#fbfbfb" fill-rule="evenodd"></path><path id="path4" d="M168.167 4.930 C 167.938 4.968,167.225 5.082,166.583 5.185 C 165.225 5.403,162.670 6.373,160.704 7.418 C 153.216 11.399,149.685 17.274,149.386 26.250 L 149.287 29.250 149.884 30.435 C 150.212 31.087,150.757 32.324,151.096 33.185 C 153.237 38.632,156.434 41.251,165.000 44.577 C 170.859 46.851,171.834 47.246,173.257 47.923 C 178.588 50.457,180.849 53.770,180.871 59.083 C 180.910 68.197,172.603 74.628,163.750 72.337 C 160.829 71.581,159.402 70.585,157.110 67.700 C 153.762 63.486,150.952 62.838,148.001 65.598 C 145.119 68.294,145.652 72.075,149.472 76.039 C 155.085 81.862,162.757 84.399,171.504 83.327 C 192.113 80.800,198.374 51.271,180.765 39.650 C 177.999 37.825,175.356 36.728,169.750 35.079 C 164.105 33.419,163.814 33.280,162.269 31.514 C 157.204 25.727,161.076 16.686,168.952 15.910 C 172.499 15.560,174.142 16.261,177.333 19.485 C 180.902 23.089,182.502 23.716,184.927 22.462 C 190.489 19.586,187.316 11.604,178.932 7.383 C 175.701 5.755,170.450 4.559,168.167 4.930 M209.794 5.785 C 210.001 5.824,210.301 5.823,210.460 5.781 C 210.620 5.739,210.450 5.707,210.083 5.709 C 209.717 5.711,209.586 5.745,209.794 5.785 M205.078 19.083 C 205.078 23.942,205.099 25.905,205.125 23.447 C 205.151 20.988,205.151 17.013,205.125 14.613 C 205.099 12.213,205.078 14.225,205.078 19.083 M15.245 16.375 L 14.250 17.417 15.292 16.422 C 16.259 15.498,16.410 15.333,16.286 15.333 C 16.261 15.333,15.792 15.802,15.245 16.375 M67.833 16.052 C 67.833 16.081,68.077 16.325,68.375 16.594 L 68.917 17.083 68.427 16.542 C 67.971 16.037,67.833 15.923,67.833 16.052 M192.383 18.500 C 192.383 19.004,192.415 19.210,192.453 18.958 C 192.491 18.706,192.491 18.294,192.453 18.042 C 192.415 17.790,192.383 17.996,192.383 18.500 M40.627 20.285 C 40.834 20.324,41.134 20.323,41.294 20.281 C 41.453 20.239,41.283 20.207,40.917 20.209 C 40.550 20.211,40.420 20.245,40.627 20.285 M43.708 20.282 C 43.869 20.323,44.131 20.323,44.292 20.282 C 44.452 20.240,44.321 20.205,44.000 20.205 C 43.679 20.205,43.548 20.240,43.708 20.282 M22.579 23.375 L 21.417 24.583 22.625 23.421 C 23.747 22.342,23.909 22.167,23.787 22.167 C 23.762 22.167,23.218 22.710,22.579 23.375 M174.660 23.542 C 175.350 24.278,175.500 24.410,175.500 24.285 C 175.500 24.258,175.144 23.902,174.708 23.493 L 173.917 22.750 174.660 23.542 M189.577 25.208 L 188.750 26.083 189.625 25.256 C 190.106 24.801,190.500 24.408,190.500 24.381 C 190.500 24.257,190.346 24.395,189.577 25.208 M58.750 27.000 C 59.387 27.642,59.945 28.167,59.991 28.167 C 60.037 28.167,59.553 27.642,58.917 27.000 C 58.280 26.358,57.721 25.833,57.676 25.833 C 57.630 25.833,58.113 26.358,58.750 27.000 M298.294 27.451 C 298.501 27.491,298.801 27.490,298.960 27.448 C 299.120 27.406,298.950 27.374,298.583 27.375 C 298.217 27.377,298.086 27.411,298.294 27.451 M219.292 27.789 C 219.681 27.824,220.319 27.824,220.708 27.789 C 221.098 27.754,220.779 27.725,220.000 27.725 C 219.221 27.725,218.902 27.754,219.292 27.789 M183.875 27.948 C 184.035 27.990,184.298 27.990,184.458 27.948 C 184.619 27.906,184.487 27.872,184.167 27.872 C 183.846 27.872,183.715 27.906,183.875 27.948 M202.128 27.954 C 202.428 27.991,202.878 27.990,203.128 27.952 C 203.378 27.914,203.133 27.884,202.583 27.885 C 202.033 27.886,201.828 27.917,202.128 27.954 M364.460 27.951 C 364.668 27.991,364.968 27.990,365.127 27.948 C 365.286 27.906,365.117 27.874,364.750 27.875 C 364.383 27.877,364.253 27.911,364.460 27.951 M368.460 27.951 C 368.668 27.991,368.968 27.990,369.127 27.948 C 369.286 27.906,369.117 27.874,368.750 27.875 C 368.383 27.877,368.253 27.911,368.460 27.951 M257.792 28.118 C 257.998 28.157,258.335 28.157,258.542 28.118 C 258.748 28.078,258.579 28.045,258.167 28.045 C 257.754 28.045,257.585 28.078,257.792 28.118 M260.458 28.118 C 260.665 28.157,261.002 28.157,261.208 28.118 C 261.415 28.078,261.246 28.045,260.833 28.045 C 260.421 28.045,260.252 28.078,260.458 28.118 M112.713 28.456 C 113.152 28.490,113.827 28.490,114.213 28.455 C 114.600 28.420,114.242 28.392,113.417 28.392 C 112.592 28.393,112.275 28.422,112.713 28.456 M110.042 28.615 C 110.202 28.657,110.465 28.657,110.625 28.615 C 110.785 28.573,110.654 28.539,110.333 28.539 C 110.013 28.539,109.881 28.573,110.042 28.615 M116.042 28.615 C 116.202 28.657,116.465 28.657,116.625 28.615 C 116.785 28.573,116.654 28.539,116.333 28.539 C 116.013 28.539,115.881 28.573,116.042 28.615 M223.167 28.552 C 223.167 28.581,223.410 28.825,223.708 29.094 L 224.250 29.583 223.760 29.042 C 223.304 28.537,223.167 28.423,223.167 28.552 M166.036 29.419 C 166.377 29.775,166.683 30.033,166.716 29.992 C 166.749 29.950,166.470 29.659,166.096 29.344 L 165.417 28.771 166.036 29.419 M199.491 29.458 L 198.917 30.083 199.542 29.509 C 200.123 28.974,200.243 28.833,200.116 28.833 C 200.088 28.833,199.807 29.115,199.491 29.458 M82.863 32.500 C 82.844 33.004,82.787 33.604,82.736 33.833 C 82.657 34.188,82.671 34.207,82.830 33.959 C 82.935 33.794,82.990 33.214,82.957 32.626 L 82.898 31.583 82.863 32.500 M293.414 54.083 C 293.414 66.183,293.434 71.109,293.458 65.029 C 293.483 58.949,293.483 49.049,293.458 43.029 C 293.434 37.009,293.414 41.983,293.414 54.083 M230.221 33.583 C 230.222 34.225,230.252 34.467,230.288 34.121 C 230.324 33.775,230.324 33.250,230.287 32.955 C 230.250 32.659,230.221 32.942,230.221 33.583 M333.209 34.750 C 333.211 35.117,333.245 35.247,333.285 35.040 C 333.324 34.832,333.323 34.532,333.281 34.373 C 333.239 34.214,333.207 34.383,333.209 34.750 M241.740 34.875 L 241.250 35.417 241.792 34.927 C 242.297 34.471,242.410 34.333,242.281 34.333 C 242.252 34.333,242.009 34.577,241.740 34.875 M337.881 35.417 C 337.882 35.875,337.915 36.043,337.953 35.789 C 337.991 35.536,337.990 35.161,337.951 34.956 C 337.911 34.751,337.880 34.958,337.881 35.417 M347.406 35.375 L 346.917 35.917 347.458 35.427 C 347.963 34.971,348.077 34.833,347.948 34.833 C 347.919 34.833,347.675 35.077,347.406 35.375 M239.906 36.708 L 239.417 37.250 239.958 36.760 C 240.463 36.304,240.577 36.167,240.448 36.167 C 240.419 36.167,240.175 36.410,239.906 36.708 M345.909 36.875 L 345.250 37.583 345.958 36.925 C 346.617 36.312,346.743 36.167,346.617 36.167 C 346.590 36.167,346.271 36.485,345.909 36.875 M132.333 36.719 C 132.333 36.748,132.577 36.991,132.875 37.260 L 133.417 37.750 132.927 37.208 C 132.471 36.703,132.333 36.590,132.333 36.719 M364.958 37.289 C 365.348 37.324,365.985 37.324,366.375 37.289 C 366.765 37.254,366.446 37.225,365.667 37.225 C 364.887 37.225,364.569 37.254,364.958 37.289 M112.631 37.956 C 113.115 37.990,113.865 37.990,114.297 37.956 C 114.730 37.921,114.333 37.894,113.417 37.894 C 112.500 37.895,112.146 37.923,112.631 37.956 M205.413 52.417 C 205.413 60.300,205.433 63.501,205.458 59.529 C 205.483 55.558,205.483 49.108,205.458 45.196 C 205.433 41.284,205.413 44.533,205.413 52.417 M227.242 40.208 L 226.583 40.917 227.292 40.258 C 227.681 39.895,228.000 39.577,228.000 39.550 C 228.000 39.423,227.855 39.550,227.242 40.208 M335.240 41.208 L 334.750 41.750 335.292 41.260 C 335.797 40.804,335.910 40.667,335.781 40.667 C 335.752 40.667,335.509 40.910,335.240 41.208 M69.879 41.500 C 69.879 41.912,69.911 42.081,69.951 41.875 C 69.991 41.669,69.991 41.331,69.951 41.125 C 69.911 40.919,69.879 41.087,69.879 41.500 M271.583 41.667 C 272.035 42.125,272.442 42.500,272.487 42.500 C 272.533 42.500,272.201 42.125,271.750 41.667 C 271.299 41.208,270.892 40.833,270.846 40.833 C 270.800 40.833,271.132 41.208,271.583 41.667 M308.661 41.792 L 307.750 42.750 308.708 41.839 C 309.599 40.993,309.743 40.833,309.619 40.833 C 309.593 40.833,309.162 41.265,308.661 41.792 M14.548 41.750 C 14.549 42.208,14.581 42.376,14.620 42.123 C 14.658 41.869,14.657 41.494,14.617 41.289 C 14.578 41.084,14.546 41.292,14.548 41.750 M246.906 41.708 L 246.417 42.250 246.958 41.760 C 247.463 41.304,247.577 41.167,247.448 41.167 C 247.419 41.167,247.175 41.410,246.906 41.708 M258.208 41.615 C 258.369 41.657,258.631 41.657,258.792 41.615 C 258.952 41.573,258.821 41.539,258.500 41.539 C 258.179 41.539,258.048 41.573,258.208 41.615 M19.214 42.417 C 19.216 42.875,19.248 43.043,19.286 42.789 C 19.325 42.536,19.324 42.161,19.284 41.956 C 19.244 41.751,19.213 41.958,19.214 42.417 M353.078 42.875 L 352.083 43.917 353.125 42.922 C 353.698 42.375,354.167 41.906,354.167 41.880 C 354.167 41.757,354.002 41.907,353.078 42.875 M199.208 42.115 C 199.369 42.157,199.631 42.157,199.792 42.115 C 199.952 42.073,199.821 42.039,199.500 42.039 C 199.179 42.039,199.048 42.073,199.208 42.115 M365.375 42.286 C 365.627 42.324,366.040 42.324,366.292 42.286 C 366.544 42.248,366.337 42.217,365.833 42.217 C 365.329 42.217,365.123 42.248,365.375 42.286 M4.205 42.833 C 4.205 43.154,4.240 43.285,4.282 43.125 C 4.323 42.965,4.323 42.702,4.282 42.542 C 4.240 42.381,4.205 42.512,4.205 42.833 M151.500 42.385 C 151.500 42.414,151.744 42.658,152.042 42.927 L 152.583 43.417 152.094 42.875 C 151.638 42.370,151.500 42.257,151.500 42.385 M113.128 42.954 C 113.428 42.991,113.878 42.990,114.128 42.952 C 114.378 42.914,114.133 42.884,113.583 42.885 C 113.033 42.886,112.828 42.917,113.128 42.954 M14.545 44.000 C 14.545 44.413,14.578 44.581,14.618 44.375 C 14.657 44.169,14.657 43.831,14.618 43.625 C 14.578 43.419,14.545 43.587,14.545 44.000 M19.214 44.417 C 19.216 44.875,19.248 45.043,19.286 44.789 C 19.325 44.536,19.324 44.161,19.284 43.956 C 19.244 43.751,19.213 43.958,19.214 44.417 M69.875 44.250 C 69.877 44.617,69.911 44.747,69.951 44.540 C 69.991 44.332,69.990 44.032,69.948 43.873 C 69.906 43.714,69.874 43.883,69.875 44.250 M268.000 44.719 C 268.000 44.748,268.244 44.991,268.542 45.260 L 269.083 45.750 268.594 45.208 C 268.138 44.703,268.000 44.590,268.000 44.719 M288.908 44.848 C 288.846 44.948,288.879 45.113,288.981 45.215 C 289.117 45.351,289.167 45.303,289.167 45.033 C 289.167 44.631,289.080 44.569,288.908 44.848 M366.292 45.458 C 367.598 45.486,369.735 45.486,371.042 45.458 C 372.348 45.430,371.279 45.407,368.667 45.407 C 366.054 45.407,364.985 45.430,366.292 45.458 M121.667 45.719 C 121.667 45.748,121.910 45.991,122.208 46.260 L 122.750 46.750 122.260 46.208 C 121.804 45.703,121.667 45.590,121.667 45.719 M104.333 46.750 C 103.928 47.163,103.635 47.500,103.681 47.500 C 103.726 47.500,104.095 47.163,104.500 46.750 C 104.905 46.337,105.199 46.000,105.153 46.000 C 105.107 46.000,104.738 46.337,104.333 46.750 M122.833 46.885 C 122.833 46.914,123.077 47.158,123.375 47.427 L 123.917 47.917 123.427 47.375 C 122.971 46.870,122.833 46.757,122.833 46.885 M355.375 49.291 C 356.635 49.320,358.698 49.320,359.958 49.291 C 361.219 49.263,360.188 49.240,357.667 49.240 C 355.146 49.240,354.115 49.263,355.375 49.291 M372.550 49.458 C 373.449 49.488,374.874 49.488,375.717 49.457 C 376.560 49.427,375.825 49.403,374.083 49.403 C 372.342 49.403,371.652 49.428,372.550 49.458 M303.732 52.583 C 303.733 53.867,303.759 54.370,303.791 53.701 C 303.822 53.032,303.822 51.982,303.790 51.368 C 303.758 50.753,303.732 51.300,303.732 52.583 M87.167 74.750 C 87.167 88.026,87.204 98.852,87.249 98.807 C 87.359 98.697,87.362 50.806,87.252 50.697 C 87.205 50.650,87.167 61.474,87.167 74.750 M308.394 53.750 C 308.395 54.667,308.423 55.020,308.456 54.536 C 308.490 54.052,308.490 53.302,308.456 52.869 C 308.421 52.437,308.394 52.833,308.394 53.750 M339.228 53.833 C 339.228 54.796,339.256 55.190,339.290 54.708 C 339.323 54.227,339.323 53.440,339.290 52.958 C 339.256 52.477,339.228 52.871,339.228 53.833 M391.887 53.333 C 391.887 53.929,391.917 54.173,391.954 53.875 C 391.991 53.577,391.991 53.090,391.954 52.792 C 391.917 52.494,391.887 52.737,391.887 53.333 M396.558 53.833 C 396.558 54.612,396.587 54.931,396.622 54.542 C 396.657 54.152,396.657 53.515,396.622 53.125 C 396.587 52.735,396.558 53.054,396.558 53.833 M82.793 58.140 C 82.817 61.134,82.858 64.258,82.884 65.083 C 82.910 65.908,82.945 63.546,82.963 59.833 C 82.980 56.121,82.940 52.997,82.872 52.890 C 82.805 52.784,82.769 55.147,82.793 58.140 M139.396 54.500 C 139.396 55.554,139.423 55.985,139.456 55.458 C 139.490 54.931,139.490 54.069,139.456 53.542 C 139.423 53.015,139.396 53.446,139.396 54.500 M144.064 55.167 C 144.064 56.313,144.091 56.781,144.123 56.208 C 144.156 55.635,144.156 54.698,144.123 54.125 C 144.091 53.552,144.064 54.021,144.064 55.167 M233.055 54.417 C 233.055 55.058,233.086 55.300,233.122 54.955 C 233.158 54.609,233.157 54.084,233.120 53.788 C 233.083 53.492,233.054 53.775,233.055 54.417 M285.875 54.417 C 285.877 54.783,285.911 54.914,285.951 54.706 C 285.991 54.499,285.990 54.199,285.948 54.040 C 285.906 53.880,285.874 54.050,285.875 54.417 M130.889 55.333 C 130.889 56.021,130.919 56.302,130.955 55.958 C 130.991 55.615,130.991 55.052,130.955 54.708 C 130.919 54.365,130.889 54.646,130.889 55.333 M100.705 57.333 C 100.705 57.654,100.740 57.785,100.782 57.625 C 100.823 57.465,100.823 57.202,100.782 57.042 C 100.740 56.881,100.705 57.012,100.705 57.333 M139.205 57.833 C 139.205 58.154,139.240 58.285,139.282 58.125 C 139.323 57.965,139.323 57.702,139.282 57.542 C 139.240 57.381,139.205 57.512,139.205 57.833 M176.542 58.917 C 176.544 59.283,176.578 59.414,176.618 59.206 C 176.658 58.999,176.656 58.699,176.615 58.540 C 176.573 58.380,176.540 58.550,176.542 58.917 M195.729 60.083 C 195.729 61.092,195.757 61.483,195.790 60.952 C 195.823 60.422,195.823 59.597,195.789 59.119 C 195.756 58.641,195.729 59.075,195.729 60.083 M308.236 61.583 C 308.236 63.325,308.261 64.015,308.291 63.116 C 308.321 62.218,308.321 60.793,308.291 59.950 C 308.261 59.107,308.236 59.842,308.236 61.583 M303.566 61.750 C 303.566 63.033,303.592 63.536,303.624 62.868 C 303.656 62.199,303.655 61.149,303.623 60.534 C 303.591 59.920,303.565 60.467,303.566 61.750 M393.573 61.708 L 393.083 62.250 393.625 61.760 C 394.130 61.304,394.243 61.167,394.115 61.167 C 394.086 61.167,393.842 61.410,393.573 61.708 M144.828 63.125 L 143.917 64.083 144.875 63.172 C 145.765 62.326,145.910 62.167,145.786 62.167 C 145.760 62.167,145.329 62.598,144.828 63.125 M357.667 64.135 C 357.667 64.210,357.910 64.491,358.208 64.760 L 358.750 65.250 358.260 64.708 L 357.771 64.167 365.906 64.167 C 373.628 64.167,374.029 64.181,373.815 64.458 C 373.631 64.696,373.658 64.691,373.961 64.433 C 374.166 64.258,374.333 64.089,374.333 64.058 C 374.333 64.026,370.583 64.000,366.000 64.000 C 361.417 64.000,357.667 64.061,357.667 64.135 M386.292 64.124 C 386.956 64.155,388.044 64.155,388.708 64.124 C 389.373 64.092,388.829 64.066,387.500 64.066 C 386.171 64.066,385.627 64.092,386.292 64.124 M288.968 64.792 C 288.940 64.860,288.956 67.579,289.004 70.833 L 289.092 76.750 289.129 70.708 C 289.163 65.260,289.139 64.377,288.968 64.792 M271.491 66.292 L 270.917 66.917 271.542 66.342 C 271.885 66.026,272.167 65.745,272.167 65.717 C 272.167 65.590,272.026 65.710,271.491 66.292 M354.167 66.750 C 354.665 67.254,355.109 67.667,355.155 67.667 C 355.201 67.667,354.831 67.254,354.333 66.750 C 353.835 66.246,353.391 65.833,353.345 65.833 C 353.299 65.833,353.669 66.246,354.167 66.750 M100.000 66.552 C 100.000 66.581,100.244 66.825,100.542 67.094 L 101.083 67.583 100.594 67.042 C 100.138 66.537,100.000 66.423,100.000 66.552 M69.073 68.375 L 68.583 68.917 69.125 68.427 C 69.630 67.971,69.743 67.833,69.615 67.833 C 69.586 67.833,69.342 68.077,69.073 68.375 M308.066 70.250 C 308.066 71.533,308.092 72.036,308.124 71.368 C 308.156 70.699,308.155 69.649,308.123 69.034 C 308.091 68.420,308.065 68.967,308.066 70.250 M365.125 68.121 C 365.423 68.158,365.910 68.158,366.208 68.121 C 366.506 68.084,366.262 68.053,365.667 68.053 C 365.071 68.053,364.827 68.084,365.125 68.121 M303.383 69.500 C 303.383 70.004,303.415 70.210,303.453 69.958 C 303.491 69.706,303.491 69.294,303.453 69.042 C 303.415 68.790,303.383 68.996,303.383 69.500 M67.577 69.875 L 66.750 70.750 67.625 69.923 C 68.106 69.468,68.500 69.074,68.500 69.048 C 68.500 68.924,68.346 69.062,67.577 69.875 M123.583 69.437 C 123.284 69.692,123.222 69.794,123.430 69.691 C 123.736 69.539,124.309 68.990,124.145 69.006 C 124.111 69.009,123.858 69.203,123.583 69.437 M41.795 70.621 C 42.094 70.658,42.544 70.657,42.795 70.619 C 43.045 70.581,42.800 70.551,42.250 70.552 C 41.700 70.553,41.495 70.584,41.795 70.621 M10.333 71.052 C 10.333 71.081,10.577 71.325,10.875 71.594 L 11.417 72.083 10.927 71.542 C 10.471 71.037,10.333 70.923,10.333 71.052 M72.906 71.542 L 72.417 72.083 72.958 71.594 C 73.256 71.325,73.500 71.081,73.500 71.052 C 73.500 70.923,73.362 71.037,72.906 71.542 M258.631 71.290 C 259.115 71.324,259.865 71.323,260.297 71.289 C 260.730 71.255,260.333 71.227,259.417 71.228 C 258.500 71.228,258.146 71.256,258.631 71.290 M223.375 71.453 C 223.627 71.491,224.040 71.491,224.292 71.453 C 224.544 71.415,224.338 71.383,223.833 71.383 C 223.329 71.383,223.123 71.415,223.375 71.453 M347.417 72.500 C 347.961 73.050,348.444 73.500,348.490 73.500 C 348.535 73.500,348.128 73.050,347.583 72.500 C 347.039 71.950,346.556 71.500,346.510 71.500 C 346.465 71.500,346.872 71.950,347.417 72.500 M131.742 73.042 L 131.083 73.750 131.792 73.091 C 132.450 72.478,132.577 72.333,132.450 72.333 C 132.423 72.333,132.105 72.652,131.742 73.042 M112.542 72.789 C 112.977 72.824,113.690 72.824,114.125 72.789 C 114.560 72.755,114.204 72.727,113.333 72.727 C 112.462 72.727,112.106 72.755,112.542 72.789 M69.991 74.458 L 69.417 75.083 70.042 74.509 C 70.385 74.193,70.667 73.912,70.667 73.884 C 70.667 73.757,70.526 73.877,69.991 74.458 M13.833 74.583 C 14.144 74.904,14.436 75.167,14.482 75.167 C 14.528 75.167,14.311 74.904,14.000 74.583 C 13.689 74.262,13.397 74.000,13.351 74.000 C 13.305 74.000,13.522 74.262,13.833 74.583 M96.374 86.875 L 96.414 99.250 96.458 86.949 C 96.491 77.743,96.550 74.678,96.693 74.767 C 96.812 74.840,96.839 74.811,96.766 74.692 C 96.374 74.058,96.336 75.241,96.374 86.875 M344.417 76.167 C 345.238 76.992,345.947 77.667,345.993 77.667 C 346.039 77.667,345.405 76.992,344.583 76.167 C 343.762 75.342,343.053 74.667,343.007 74.667 C 342.961 74.667,343.595 75.342,344.417 76.167 M134.996 76.792 L 133.583 78.250 135.042 76.837 C 135.844 76.060,136.500 75.404,136.500 75.379 C 136.500 75.257,136.309 75.437,134.996 76.792 M307.872 76.167 C 307.872 76.487,307.906 76.619,307.948 76.458 C 307.990 76.298,307.990 76.035,307.948 75.875 C 307.906 75.715,307.872 75.846,307.872 76.167 M281.410 76.875 L 280.583 77.750 281.458 76.923 C 281.940 76.468,282.333 76.074,282.333 76.048 C 282.333 75.924,282.179 76.062,281.410 76.875 M295.826 79.208 C 296.517 79.944,296.667 80.077,296.667 79.951 C 296.667 79.925,296.310 79.568,295.875 79.160 L 295.083 78.417 295.826 79.208 M146.667 80.083 C 147.257 80.679,147.778 81.167,147.824 81.167 C 147.870 81.167,147.424 80.679,146.833 80.083 C 146.243 79.487,145.722 79.000,145.676 79.000 C 145.630 79.000,146.076 79.487,146.667 80.083 M40.534 80.290 C 41.149 80.322,42.199 80.322,42.868 80.291 C 43.536 80.259,43.033 80.233,41.750 80.232 C 40.467 80.232,39.920 80.258,40.534 80.290 M187.333 80.917 C 186.928 81.329,186.635 81.667,186.681 81.667 C 186.726 81.667,187.095 81.329,187.500 80.917 C 187.905 80.504,188.199 80.167,188.153 80.167 C 188.107 80.167,187.738 80.504,187.333 80.917 M112.292 80.623 C 112.865 80.656,113.802 80.656,114.375 80.623 C 114.948 80.591,114.479 80.564,113.333 80.564 C 112.188 80.564,111.719 80.591,112.292 80.623 M257.208 80.782 C 257.369 80.823,257.631 80.823,257.792 80.782 C 257.952 80.740,257.821 80.705,257.500 80.705 C 257.179 80.705,257.048 80.740,257.208 80.782 M298.625 80.951 C 298.831 80.991,299.169 80.991,299.375 80.951 C 299.581 80.911,299.412 80.879,299.000 80.879 C 298.587 80.879,298.419 80.911,298.625 80.951 M222.296 81.122 C 222.688 81.157,223.288 81.157,223.629 81.121 C 223.971 81.085,223.650 81.057,222.917 81.057 C 222.183 81.058,221.904 81.087,222.296 81.122 M101.038 91.875 C 101.059 96.756,101.096 99.325,101.121 97.583 C 101.237 89.426,101.239 83.000,101.125 83.000 C 101.056 83.000,101.017 86.994,101.038 91.875 M293.000 83.052 C 293.000 83.081,293.244 83.325,293.542 83.594 L 294.083 84.083 293.594 83.542 C 293.138 83.037,293.000 82.923,293.000 83.052 M40.375 85.291 C 41.177 85.321,42.490 85.321,43.292 85.291 C 44.094 85.260,43.438 85.235,41.833 85.235 C 40.229 85.235,39.573 85.260,40.375 85.291 M109.375 85.448 C 109.535 85.490,109.798 85.490,109.958 85.448 C 110.119 85.406,109.987 85.372,109.667 85.372 C 109.346 85.372,109.215 85.406,109.375 85.448 M117.042 85.448 C 117.202 85.490,117.465 85.490,117.625 85.448 C 117.785 85.406,117.654 85.372,117.333 85.372 C 117.013 85.372,116.881 85.406,117.042 85.448 M111.294 85.618 C 111.501 85.658,111.801 85.656,111.960 85.615 C 112.120 85.573,111.950 85.540,111.583 85.542 C 111.217 85.544,111.086 85.578,111.294 85.618 M115.208 85.615 C 115.369 85.657,115.631 85.657,115.792 85.615 C 115.952 85.573,115.821 85.539,115.500 85.539 C 115.179 85.539,115.048 85.573,115.208 85.615 M257.042 85.782 C 257.202 85.823,257.465 85.823,257.625 85.782 C 257.785 85.740,257.654 85.705,257.333 85.705 C 257.012 85.705,256.881 85.740,257.042 85.782 M261.708 85.782 C 261.869 85.823,262.131 85.823,262.292 85.782 C 262.452 85.740,262.321 85.705,262.000 85.705 C 261.679 85.705,261.548 85.740,261.708 85.782 M298.629 85.956 C 299.021 85.991,299.621 85.990,299.963 85.954 C 300.304 85.919,299.983 85.890,299.250 85.890 C 298.517 85.891,298.237 85.920,298.629 85.956 M221.627 86.118 C 221.834 86.158,222.134 86.156,222.294 86.115 C 222.453 86.073,222.283 86.040,221.917 86.042 C 221.550 86.044,221.420 86.078,221.627 86.118 M223.792 86.118 C 223.998 86.157,224.335 86.157,224.542 86.118 C 224.748 86.078,224.579 86.045,224.167 86.045 C 223.754 86.045,223.585 86.078,223.792 86.118 M162.542 88.282 C 162.702 88.323,162.965 88.323,163.125 88.282 C 163.285 88.240,163.154 88.205,162.833 88.205 C 162.512 88.205,162.381 88.240,162.542 88.282 M93.667 103.031 C 93.254 103.407,93.067 103.635,93.250 103.538 C 93.564 103.372,94.647 102.325,94.490 102.340 C 94.449 102.344,94.079 102.655,93.667 103.031 M86.583 106.667 C 86.941 107.033,87.272 107.333,87.318 107.333 C 87.363 107.333,87.108 107.033,86.750 106.667 C 86.392 106.300,86.062 106.000,86.016 106.000 C 85.970 106.000,86.225 106.300,86.583 106.667 " stroke="none" fill="#94a3bb" fill-rule="evenodd"></path><path id="path5" d="M219.500 17.247 L 219.500 23.660 219.880 23.756 C 220.089 23.808,220.745 23.828,221.338 23.801 L 222.417 23.750 222.461 19.627 L 222.506 15.505 221.965 14.377 C 221.490 13.389,220.988 12.574,220.015 11.214 C 219.869 11.010,219.694 10.841,219.625 10.839 C 219.556 10.836,219.500 13.719,219.500 17.247 M192.285 16.417 C 193.760 22.272,188.743 28.219,182.545 27.963 C 179.508 27.838,178.335 27.204,175.076 23.933 C 172.236 21.082,172.411 21.212,171.148 21.010 C 167.616 20.446,164.798 22.654,164.784 25.997 C 164.776 27.833,165.714 29.484,167.053 29.989 C 167.787 30.267,167.929 30.211,168.239 29.525 C 169.140 27.526,171.554 26.405,174.029 26.836 C 175.248 27.048,175.464 27.216,178.011 29.933 C 181.914 34.095,186.106 34.994,190.559 32.622 C 191.618 32.058,193.833 29.998,193.833 29.578 C 193.833 29.443,193.895 29.333,193.969 29.333 C 194.128 29.333,194.667 28.015,195.092 26.586 C 195.630 24.779,195.385 21.947,194.500 19.750 C 194.125 18.819,193.417 17.501,193.292 17.501 C 193.223 17.500,193.165 17.406,193.162 17.292 C 193.160 17.177,192.933 16.821,192.659 16.500 L 192.159 15.917 192.285 16.417 M40.833 20.280 C 24.009 21.527,14.032 39.865,22.169 54.583 C 23.294 56.617,23.573 56.732,22.974 54.917 C 22.031 52.055,22.033 46.258,22.978 43.311 C 23.684 41.107,23.888 40.556,24.421 39.419 C 28.082 31.599,35.649 26.568,44.529 26.047 C 46.874 25.910,51.537 26.660,52.982 27.407 C 53.258 27.550,53.561 27.667,53.655 27.667 C 53.881 27.667,56.443 28.913,57.083 29.334 C 57.358 29.515,57.696 29.714,57.833 29.776 C 58.143 29.916,60.127 31.450,60.593 31.911 C 60.782 32.097,61.119 32.408,61.343 32.601 C 62.043 33.205,63.288 34.606,63.762 35.321 C 64.433 36.335,64.435 36.040,63.769 34.407 C 60.608 26.653,53.202 21.256,44.459 20.335 C 42.952 20.176,42.361 20.167,40.833 20.280 M81.595 29.797 C 81.986 30.963,82.418 32.329,82.556 32.833 L 82.806 33.750 82.820 32.456 C 82.827 31.744,82.747 30.994,82.641 30.789 C 80.715 27.062,80.659 27.009,81.595 29.797 M230.333 33.444 C 230.333 36.392,228.798 39.163,225.871 41.497 L 224.417 42.657 222.042 42.662 L 219.667 42.667 219.667 53.554 C 219.667 66.360,219.686 66.505,221.501 67.231 C 222.770 67.739,222.667 68.561,222.667 58.000 L 222.667 48.500 224.988 48.500 C 226.666 48.500,227.371 48.440,227.530 48.284 C 227.651 48.165,228.088 47.835,228.500 47.551 C 229.646 46.763,229.938 46.363,230.418 44.917 C 230.662 44.183,231.426 42.442,232.117 41.047 L 233.372 38.510 233.074 37.297 C 232.725 35.871,231.998 34.410,231.029 33.183 L 230.333 32.303 230.333 33.444 M338.001 35.250 C 337.939 39.273,335.248 42.290,329.546 44.730 L 328.203 45.305 327.609 44.902 C 320.622 40.154,312.981 42.159,309.112 49.756 L 308.520 50.917 308.348 60.000 C 308.014 77.551,308.049 77.012,307.088 79.392 C 304.211 86.521,298.300 88.101,293.076 83.138 L 291.833 81.958 291.833 82.731 C 291.833 83.544,291.917 83.744,292.792 85.032 C 293.090 85.471,293.333 85.871,293.333 85.922 C 293.333 86.025,293.288 85.966,294.636 87.615 C 295.672 88.883,297.021 90.120,297.788 90.506 C 298.042 90.633,298.438 90.858,298.667 91.006 C 303.074 93.835,309.026 89.996,310.691 83.250 C 310.913 82.351,311.307 69.405,311.322 62.548 L 311.333 57.013 312.162 55.410 C 315.364 49.214,320.134 47.026,326.417 48.870 C 327.058 49.059,327.658 49.268,327.750 49.336 C 327.842 49.404,328.104 49.517,328.333 49.587 C 328.563 49.657,329.287 50.040,329.943 50.438 L 331.135 51.162 332.359 50.623 C 333.032 50.327,333.958 49.897,334.417 49.667 L 335.250 49.250 335.626 47.750 C 336.469 44.383,337.444 42.019,339.157 39.182 L 340.190 37.472 339.637 36.553 C 339.332 36.047,338.843 35.360,338.549 35.025 L 338.014 34.417 338.001 35.250 M85.724 36.176 C 85.898 36.920,87.120 39.377,87.229 39.200 C 87.358 38.992,86.248 36.346,85.887 36.000 C 85.652 35.775,85.635 35.793,85.724 36.176 M196.671 40.868 C 196.968 42.627,198.077 44.580,199.694 46.194 C 201.152 47.649,201.167 47.634,201.167 44.760 C 201.167 42.063,201.228 42.174,199.721 42.169 C 199.025 42.167,198.181 41.669,196.984 40.556 L 196.551 40.153 196.671 40.868 M149.833 40.960 C 149.833 41.229,150.859 43.713,151.157 44.167 C 151.307 44.396,151.577 44.869,151.757 45.218 C 152.156 45.994,153.682 47.723,155.108 49.014 C 156.887 50.626,161.189 53.099,164.500 54.414 C 164.912 54.578,165.475 54.804,165.750 54.917 C 166.512 55.229,169.099 56.232,170.500 56.758 C 171.188 57.016,171.821 57.289,171.908 57.364 C 171.995 57.439,172.171 57.500,172.299 57.500 C 172.622 57.500,176.218 59.315,176.371 59.555 C 176.643 59.983,176.478 58.131,176.148 57.059 C 175.310 54.334,173.862 53.362,166.167 50.360 C 157.431 46.952,154.736 45.477,151.381 42.272 C 150.530 41.459,149.833 40.869,149.833 40.960 M257.927 41.686 C 248.740 42.898,243.854 52.963,248.539 61.023 C 249.691 63.005,249.759 62.976,249.692 60.523 C 249.630 58.225,249.951 56.701,250.918 54.695 C 251.147 54.222,251.333 53.760,251.333 53.667 C 251.333 53.575,251.392 53.500,251.464 53.500 C 251.536 53.500,251.717 53.294,251.866 53.042 C 252.015 52.790,252.479 52.208,252.898 51.750 C 253.317 51.292,253.661 50.860,253.663 50.792 C 253.665 50.723,253.779 50.667,253.917 50.667 C 254.054 50.667,254.167 50.599,254.167 50.516 C 254.167 50.326,255.866 49.187,256.750 48.785 C 257.117 48.617,257.629 48.373,257.888 48.240 C 259.456 47.442,262.536 47.176,264.766 47.646 C 266.142 47.937,266.604 48.096,268.162 48.816 C 269.070 49.235,270.344 50.155,271.208 51.015 C 272.179 51.981,272.230 51.753,271.482 49.812 C 269.388 44.382,263.634 40.933,257.927 41.686 M363.250 42.579 C 361.670 42.941,358.000 44.813,358.000 45.256 C 358.000 45.299,361.505 45.333,365.789 45.333 L 373.577 45.333 372.933 44.896 C 372.178 44.383,369.611 43.157,368.417 42.739 C 367.325 42.357,364.586 42.272,363.250 42.579 M111.293 43.172 C 103.738 44.444,98.909 52.654,101.408 59.978 C 102.284 62.546,104.286 65.386,103.828 63.412 C 102.604 58.133,106.284 51.959,112.045 49.626 L 113.750 48.936 116.417 48.929 C 120.402 48.918,123.106 50.032,125.690 52.750 C 126.269 53.359,126.301 53.127,125.831 51.741 C 123.796 45.745,117.624 42.106,111.293 43.172 M394.570 44.598 C 398.158 53.613,396.944 60.462,391.228 63.458 L 389.877 64.167 387.618 64.167 L 385.358 64.167 386.326 65.090 C 387.389 66.104,388.206 67.555,388.509 68.969 L 388.694 69.833 390.895 69.833 C 393.235 69.833,394.511 69.431,395.708 68.318 C 397.009 67.108,397.667 66.401,397.667 66.214 C 397.667 66.096,397.730 66.000,397.807 66.000 C 398.021 66.000,398.615 64.734,399.082 63.287 C 400.109 60.101,399.414 54.641,397.398 50.058 C 397.271 49.769,397.167 49.489,397.167 49.436 C 397.167 49.234,395.760 46.414,395.633 46.361 C 395.560 46.331,395.498 46.181,395.496 46.028 C 395.494 45.875,395.346 45.563,395.167 45.333 C 394.987 45.104,394.839 44.827,394.837 44.718 C 394.835 44.609,394.746 44.465,394.638 44.399 C 394.501 44.315,394.481 44.374,394.570 44.598 M142.417 44.750 C 148.197 61.966,138.762 79.961,121.500 84.644 C 115.416 86.295,107.780 85.866,102.297 83.567 C 101.772 83.347,101.304 83.167,101.255 83.167 C 101.206 83.167,101.167 87.078,101.167 91.858 L 101.167 100.548 100.412 102.044 C 96.822 109.163,91.383 111.102,86.830 106.886 C 86.282 106.379,85.833 106.053,85.833 106.161 C 85.833 106.459,87.015 109.186,87.362 109.692 C 87.530 109.936,87.667 110.183,87.667 110.241 C 87.667 110.432,89.036 112.167,89.187 112.167 C 89.267 112.167,89.333 112.279,89.333 112.417 C 89.333 112.554,89.400 112.667,89.482 112.667 C 89.564 112.667,89.864 112.884,90.148 113.149 C 92.417 115.269,96.109 115.404,99.000 113.473 C 99.930 112.852,101.667 111.107,101.667 110.793 C 101.667 110.716,101.798 110.512,101.959 110.339 C 102.119 110.167,102.644 109.272,103.125 108.350 L 104.000 106.674 104.000 97.837 C 104.000 92.219,104.059 89.000,104.162 89.000 C 104.251 89.000,104.645 89.141,105.037 89.314 C 106.675 90.037,107.028 90.167,107.350 90.167 C 107.536 90.167,107.823 90.238,107.986 90.326 C 110.635 91.743,120.122 91.791,124.522 90.409 C 124.947 90.276,125.413 90.167,125.558 90.167 C 125.703 90.167,126.068 90.063,126.369 89.935 C 126.670 89.808,127.329 89.533,127.833 89.324 C 129.845 88.489,132.572 87.084,133.167 86.576 C 133.304 86.459,133.843 86.075,134.364 85.723 C 136.399 84.349,139.081 81.780,140.667 79.684 C 140.896 79.382,141.252 78.924,141.458 78.668 C 141.665 78.412,141.833 78.153,141.833 78.094 C 141.833 78.035,141.909 77.895,142.002 77.785 C 143.163 76.403,143.290 75.620,142.610 74.052 C 140.694 69.640,142.143 65.047,146.546 61.579 L 147.175 61.083 146.994 58.667 C 146.774 55.725,146.115 52.346,145.435 50.667 C 145.305 50.346,145.035 49.671,144.835 49.167 C 144.317 47.862,143.285 45.760,143.131 45.694 C 143.059 45.664,143.000 45.541,143.000 45.421 C 143.000 45.302,142.844 45.027,142.653 44.810 C 142.349 44.466,142.319 44.458,142.417 44.750 M194.240 50.333 C 194.298 50.563,194.564 51.575,194.830 52.583 C 198.812 67.654,190.435 83.431,176.280 87.521 C 171.195 88.991,162.616 88.816,157.886 87.146 C 153.604 85.635,148.378 82.168,145.757 79.100 C 144.793 77.972,144.738 77.987,145.157 79.264 C 146.370 82.956,150.205 87.307,154.557 89.930 C 155.001 90.198,155.639 90.583,155.974 90.786 C 156.866 91.328,159.319 92.500,159.560 92.500 C 159.674 92.500,159.838 92.564,159.925 92.642 C 160.130 92.825,162.015 93.403,163.917 93.865 C 166.220 94.425,175.014 94.428,177.250 93.869 C 179.258 93.368,181.047 92.818,181.242 92.643 C 181.329 92.564,181.498 92.500,181.619 92.500 C 181.827 92.500,184.293 91.333,185.160 90.824 C 188.702 88.746,193.387 83.957,194.771 81.000 C 194.835 80.862,195.010 80.563,195.161 80.333 C 195.658 79.574,196.936 76.428,197.393 74.833 C 199.291 68.225,199.196 62.353,197.089 55.917 C 196.623 54.492,195.213 51.453,194.976 51.361 C 194.898 51.331,194.833 51.239,194.833 51.157 C 194.833 51.075,194.676 50.762,194.484 50.462 C 194.182 49.992,194.149 49.974,194.240 50.333 M82.437 54.338 C 81.585 57.730,79.267 62.943,77.218 66.076 C 60.540 91.585,24.030 91.783,6.847 66.458 C 6.033 65.258,5.620 64.778,5.988 65.458 C 6.075 65.619,6.347 66.200,6.593 66.750 C 7.492 68.759,8.632 70.880,8.861 70.972 C 8.938 71.003,9.000 71.102,9.000 71.193 C 9.000 71.556,11.890 75.520,13.023 76.711 C 13.377 77.083,13.667 77.418,13.667 77.456 C 13.667 77.617,16.824 80.612,17.903 81.473 C 18.552 81.992,19.168 82.492,19.271 82.583 C 19.375 82.675,19.629 82.862,19.836 83.000 C 20.043 83.137,20.420 83.419,20.672 83.625 C 20.925 83.831,21.180 84.000,21.239 84.000 C 21.299 84.000,21.438 84.076,21.549 84.169 C 22.229 84.740,24.762 86.202,26.333 86.931 C 26.837 87.165,27.462 87.471,27.720 87.611 C 29.023 88.318,33.582 89.723,36.750 90.394 C 42.088 91.524,49.738 91.324,54.917 89.920 C 55.375 89.796,56.012 89.640,56.333 89.575 C 56.653 89.509,57.141 89.361,57.416 89.246 C 57.691 89.131,58.442 88.868,59.083 88.661 C 59.725 88.454,60.321 88.221,60.408 88.143 C 60.495 88.064,60.666 88.000,60.788 88.000 C 61.274 88.000,65.815 85.660,67.579 84.500 C 67.788 84.362,68.193 84.103,68.480 83.922 C 68.766 83.742,69.000 83.536,69.000 83.464 C 69.000 83.392,69.106 83.333,69.236 83.333 C 69.366 83.333,69.497 83.277,69.528 83.208 C 69.558 83.140,69.911 82.861,70.311 82.589 C 70.711 82.317,71.075 81.999,71.120 81.881 C 71.165 81.763,71.276 81.667,71.366 81.667 C 71.784 81.667,77.333 76.100,77.333 75.682 C 77.333 75.582,77.405 75.500,77.492 75.500 C 77.579 75.500,77.894 75.144,78.192 74.708 C 78.490 74.273,78.824 73.825,78.934 73.713 C 79.044 73.601,79.306 73.226,79.517 72.879 C 79.727 72.533,79.941 72.212,79.991 72.167 C 80.225 71.955,82.119 68.650,82.500 67.788 C 82.823 67.058,82.835 66.738,82.794 60.060 L 82.750 53.092 82.437 54.338 M358.718 65.062 C 362.347 68.359,366.791 68.904,370.832 66.546 C 371.602 66.097,374.000 64.343,374.000 64.230 C 374.000 64.195,370.344 64.170,365.875 64.174 L 357.750 64.182 358.718 65.062 M288.442 66.348 C 279.946 88.465,249.516 92.717,235.175 73.790 C 234.533 72.943,233.893 72.100,233.752 71.917 C 233.476 71.556,233.447 71.469,234.245 73.417 C 234.395 73.783,234.619 74.271,234.743 74.500 C 234.866 74.729,235.154 75.269,235.382 75.699 C 235.610 76.129,236.030 76.826,236.315 77.249 C 236.600 77.671,236.833 78.082,236.833 78.161 C 236.833 78.241,236.890 78.331,236.958 78.361 C 237.027 78.392,237.287 78.717,237.536 79.083 C 237.786 79.450,238.217 79.998,238.495 80.302 C 238.773 80.606,239.000 80.883,239.000 80.918 C 239.000 81.318,243.199 85.063,245.048 86.312 C 247.108 87.704,247.701 88.028,250.560 89.320 C 261.373 94.206,275.610 91.431,284.445 82.716 C 286.025 81.157,288.667 77.799,288.667 77.349 C 288.667 77.264,288.743 77.169,288.835 77.138 C 288.946 77.101,288.989 75.028,288.960 71.097 L 288.917 65.112 288.442 66.348 M339.592 71.101 C 339.725 71.549,339.897 72.067,339.975 72.250 C 340.466 73.397,340.861 74.213,341.011 74.385 C 341.106 74.494,341.499 75.042,341.883 75.602 C 343.055 77.306,343.857 78.333,344.016 78.333 C 344.099 78.333,344.167 78.401,344.167 78.483 C 344.167 79.074,349.531 84.314,351.852 85.989 C 358.772 90.984,367.890 92.963,374.859 90.982 C 375.469 90.809,376.095 90.667,376.249 90.667 C 376.539 90.667,379.138 89.813,380.167 89.380 C 381.036 89.014,384.558 87.283,384.750 87.128 C 384.842 87.053,385.586 86.552,386.404 86.013 C 388.890 84.376,390.176 82.611,391.248 79.367 C 391.884 77.440,391.564 73.788,390.643 72.474 C 390.473 72.231,390.333 71.992,390.333 71.943 C 390.333 71.788,388.955 70.333,388.808 70.333 C 388.730 70.333,388.667 70.661,388.667 71.061 C 388.667 74.741,386.533 78.275,382.917 80.588 C 368.402 89.869,352.427 86.722,341.015 72.333 C 340.252 71.371,339.565 70.516,339.489 70.434 C 339.413 70.352,339.460 70.652,339.592 71.101 M234.005 76.617 C 233.992 80.291,232.218 83.262,229.083 84.858 C 222.799 88.058,211.449 84.952,205.723 78.464 C 204.809 77.428,204.537 77.265,204.903 77.973 C 205.048 78.254,205.167 78.594,205.167 78.729 C 205.167 78.940,206.122 80.900,206.721 81.916 C 207.400 83.070,209.052 84.935,210.833 86.559 C 211.200 86.893,213.177 88.243,213.699 88.516 C 226.042 94.963,237.000 92.016,237.000 82.250 C 237.000 79.789,236.226 77.608,234.820 76.113 L 234.010 75.250 234.005 76.617 " stroke="none" fill="#3f3f41" fill-rule="evenodd"></path></g></svg>